<?xml version="1.0" encoding="UTF-8"?>
<svg id="Capa_1" xmlns="http://www.w3.org/2000/svg" version="1.1" viewBox="0 0 450 450">
  <!-- Generator: Adobe Illustrator 30.1.0, SVG Export Plug-In . SVG Version: 2.1.1 Build 136)  -->
  <defs>
    <style>
      .st0 {
        fill: #020103;
      }

      .st1 {
        fill: #fefefe;
      }
    </style>
  </defs>
  <rect width="450" height="450"/>
  <g>
    <path class="st1" d="M291.73,360.51c-1.55,7-8.21,10.04-14.13,9.59-6.56-.5-12.06-5.48-12.22-12.47l-.33-14.12h-26.53c-.37,5.97.66,11.63-.79,17.38-1.47,5.81-7.04,9.15-12.24,9.29-5.92.16-11.66-3.13-13.27-9.36-1.48-5.7-.61-11.35-.79-17.27l-26.5-.11c-.7,8.93,2.34,22.71-9.84,26.15-6.4,1.8-13.77-.65-16.22-7.19-2.25-5.99-.96-12.42-1.43-18.75-4.13-.38-8.15-.31-12.49-.31-19.31.03-36.07-12.77-40.36-31.73-1.66-7.32-.86-14.52-1.16-21.96-4.14-.3-8.17-.34-12.51-.24-7.65.18-14.01-5.45-14.51-12.98-.46-6.93,5.27-13.61,12.72-14.24,5.02-.42,9.54.18,14.54-.51l-.08-25.84c-4.46-.74-8.79-.3-13.72-.39-7.22-.14-13.08-6-13.45-13.01s5.31-13.93,12.72-14.18l14.53-.49-.05-25.88c-4.37-.43-8.38-.34-12.92-.34-7.49,0-13.89-5.59-14.29-13.1s5.88-14.05,13.61-14.24l13.63-.34c-.06-6.53-.48-12.51.44-18.88,2.97-20.55,20.24-34.66,40.86-34.82,4.36-.03,8.46,0,12.64-.41.36-5.73-.68-11.12.6-16.64,1.57-6.81,8.65-10.34,14.65-9.53,13.99,1.89,11.81,16.21,12.15,26.47h26.41c.22-3.96.08-7.84,0-12.02-.16-7.81,5-13.9,12.53-14.53,7.43-.63,14.52,4.8,14.62,12.84l.17,13.7,26.34-.19c.14-10.27-1.71-24.44,12.13-26.28,6.47-.86,13.52,3.16,14.87,10.42.99,5.32.25,10.34.36,15.82,4.92.53,9.59.14,14.61.38,22.75,1.09,39.58,19.59,39.51,42.24l-.03,11.36c4.85.82,9.39-.03,14.35.47,7.49.75,13.02,7.3,12.7,14.27-.33,7.42-6.76,12.84-14.28,12.99-4.48.09-8.49-.03-12.89.41l.08,25.83c4.61.67,8.87.14,13.51.37,7.66.37,13.42,6.34,13.58,13.57.16,7.21-5.89,13.54-13.43,13.66l-13.64.22-.02,26.13,14.54.46c7.25.23,12.5,6.81,12.57,13.51.07,7.23-5.87,13.46-13.44,13.61l-13.6.27-.1,12.46c-.16,20.21-13.69,36.98-33.66,40.64-6.69,1.23-13.37.35-20.25.9-.51,5.42.56,10.97-.76,16.94Z"/>
    <g>
      <path d="M319.2,301.47c0,7.77-4.5,14.39-12.46,14.39l-163.65.09c-7.7,0-12.24-6.81-12.24-14.05l-.07-159.8c0-8.68,5.34-14.48,14.42-14.48l160.6.06c8.71,0,13.39,6.41,13.39,14.39l.02,159.4Z"/>
      <rect class="st1" x="258" y="181" width="21.24" height="81.6"/>
      <g>
        <path class="st1" d="M215.67,245.71l-29.61-.09-5.65,16.52-22.95.24,29.36-81.29,28.14.03,29.31,81.1-23.03-.06c-1.75-5.78-3.25-10.63-5.57-16.45Z"/>
        <path class="st0" d="M210.47,229.69c-6.84,1-12.23.38-19.17.33l9.7-28.41,9.48,28.08Z"/>
      </g>
    </g>
  </g>
</svg>