<svg width="427" height="340" viewBox="0 0 427 340" fill="none" xmlns="http://www.w3.org/2000/svg">
<path d="M412.062 0.687988H55.9198C48.1399 0.687988 41.833 6.81315 41.833 14.3689V238.256C41.833 245.812 48.1399 251.937 55.9198 251.937H412.062C419.841 251.937 426.148 245.812 426.148 238.256V14.3689C426.148 6.81315 419.841 0.687988 412.062 0.687988Z" fill="#629F89"/>
<path d="M412.061 252.639H55.9056C51.9839 252.631 48.225 251.115 45.4519 248.422C42.6788 245.729 41.1177 242.078 41.1104 238.27V14.3016C41.136 10.5046 42.7052 6.87116 45.4763 4.19254C48.2474 1.51393 51.9959 0.00703564 55.9056 0H412.061C415.984 0.00357225 419.745 1.51859 422.519 4.21254C425.293 6.90648 426.853 10.5592 426.857 14.369V238.337C426.835 242.135 425.267 245.771 422.495 248.45C419.723 251.129 415.972 252.635 412.061 252.639ZM55.9056 1.38968C52.3634 1.39681 48.9684 2.76656 46.4637 5.19912C43.959 7.63168 42.5486 10.9289 42.5413 14.369V238.337C42.5486 241.777 43.959 245.074 46.4637 247.507C48.9684 249.939 52.3634 251.309 55.9056 251.316H412.061C415.605 251.313 419.002 249.944 421.507 247.511C424.013 245.077 425.422 241.778 425.426 238.337V14.369C425.422 10.9278 424.013 7.62852 421.507 5.19519C419.002 2.76186 415.605 1.39325 412.061 1.38968H55.9056Z" fill="#15371B"/>
<path d="M254.356 251.937H203.899V302.087H254.356V251.937Z" fill="#194349"/>
<path d="M254.329 302.761H203.9C203.715 302.761 203.539 302.69 203.409 302.564C203.278 302.437 203.205 302.266 203.205 302.087V251.937C203.205 251.849 203.223 251.762 203.258 251.681C203.293 251.6 203.345 251.526 203.409 251.465C203.474 251.403 203.551 251.355 203.635 251.322C203.719 251.29 203.809 251.274 203.9 251.276H254.329C254.509 251.276 254.682 251.345 254.81 251.469C254.938 251.593 255.009 251.762 255.009 251.937V302.114C255.002 302.286 254.928 302.448 254.801 302.569C254.675 302.689 254.506 302.758 254.329 302.761ZM204.567 301.412H253.634V252.611H204.594L204.567 301.412Z" fill="#15371B"/>
<path d="M280.543 302.087H177.712C174.912 302.087 172.642 304.292 172.642 307.012V307.025C172.642 309.745 174.912 311.95 177.712 311.95H280.543C283.343 311.95 285.613 309.745 285.613 307.025V307.012C285.613 304.292 283.343 302.087 280.543 302.087Z" fill="#194349"/>
<path d="M280.53 312.611H177.727C176.198 312.611 174.732 312.021 173.651 310.971C172.569 309.921 171.962 308.497 171.962 307.012C171.962 305.527 172.569 304.102 173.651 303.052C174.732 302.002 176.198 301.412 177.727 301.412H280.53C282.059 301.412 283.525 302.002 284.607 303.052C285.688 304.102 286.295 305.527 286.295 307.012C286.295 308.497 285.688 309.921 284.607 310.971C283.525 312.021 282.059 312.611 280.53 312.611ZM177.727 302.762C176.607 302.823 175.554 303.298 174.784 304.09C174.013 304.881 173.584 305.929 173.584 307.018C173.584 308.108 174.013 309.155 174.784 309.947C175.554 310.739 176.607 311.214 177.727 311.275H280.53C281.126 311.308 281.723 311.222 282.284 311.023C282.845 310.823 283.358 310.515 283.792 310.117C284.226 309.718 284.572 309.238 284.808 308.705C285.045 308.172 285.167 307.598 285.167 307.018C285.167 306.438 285.045 305.864 284.808 305.332C284.572 304.799 284.226 304.318 283.792 303.92C283.358 303.521 282.845 303.213 282.284 303.014C281.723 302.815 281.126 302.729 280.53 302.762H177.727Z" fill="#15371B"/>
<path d="M426.148 12.7769H41.833V216.331H426.148V12.7769Z" fill="#629F89"/>
<path d="M426.148 217.02H41.7773C41.6831 217.021 41.5895 217.005 41.5019 216.971C41.4143 216.937 41.3346 216.887 41.2673 216.823C41.2 216.759 41.1466 216.682 41.1101 216.598C41.0737 216.514 41.0549 216.423 41.0549 216.331V12.777C41.0492 12.6815 41.0637 12.5859 41.0975 12.496C41.1312 12.4062 41.1835 12.324 41.2512 12.2545C41.3188 12.185 41.4004 12.1297 41.4909 12.0919C41.5814 12.0542 41.6788 12.0348 41.7773 12.0349H426.148C426.242 12.0349 426.336 12.0531 426.423 12.0886C426.509 12.124 426.588 12.1759 426.654 12.2412C426.72 12.3065 426.772 12.384 426.807 12.469C426.842 12.5541 426.859 12.645 426.857 12.7365V216.331C426.857 216.422 426.838 216.511 426.803 216.595C426.767 216.678 426.715 216.754 426.649 216.818C426.583 216.882 426.505 216.933 426.419 216.967C426.333 217.002 426.241 217.02 426.148 217.02ZM42.5414 215.67H425.426V13.4651H42.5414V215.67Z" fill="#15371B"/>
<path d="M247.382 177.65H68.3526C68.1684 177.65 67.9917 177.579 67.8615 177.452C67.7312 177.326 67.658 177.154 67.658 176.975V40.3682C67.658 40.1893 67.7312 40.0177 67.8615 39.8912C67.9917 39.7647 68.1684 39.6936 68.3526 39.6936H247.382C247.566 39.6936 247.743 39.7647 247.873 39.8912C248.004 40.0177 248.077 40.1893 248.077 40.3682V176.975C248.077 177.154 248.004 177.326 247.873 177.452C247.743 177.579 247.566 177.65 247.382 177.65ZM69.0334 176.301H246.701V41.0293H69.0472L69.0334 176.301Z" fill="#D1D3D4"/>
<path d="M203.399 70.3475H112.502C112.318 70.3475 112.141 70.2764 112.011 70.1499C111.881 70.0234 111.808 69.8518 111.808 69.6729C111.808 69.494 111.881 69.3224 112.011 69.1959C112.141 69.0694 112.318 68.9983 112.502 68.9983H203.399C203.584 68.9983 203.76 69.0694 203.891 69.1959C204.021 69.3224 204.094 69.494 204.094 69.6729C204.094 69.8518 204.021 70.0234 203.891 70.1499C203.76 70.2764 203.584 70.3475 203.399 70.3475Z" fill="#D1D3D4"/>
<path d="M98.5694 70.3475H91.137C90.9528 70.3475 90.7761 70.2764 90.6458 70.1499C90.5156 70.0234 90.4424 69.8518 90.4424 69.6729C90.4424 69.494 90.5156 69.3224 90.6458 69.1959C90.7761 69.0694 90.9528 68.9983 91.137 68.9983H98.5694C98.7536 68.9983 98.9303 69.0694 99.0605 69.1959C99.1908 69.3224 99.264 69.494 99.264 69.6729C99.264 69.8518 99.1908 70.0234 99.0605 70.1499C98.9303 70.2764 98.7536 70.3475 98.5694 70.3475Z" fill="#D1D3D4"/>
<path d="M227.753 89.9244H167.044C166.86 89.9244 166.683 89.8533 166.553 89.7268C166.423 89.6003 166.35 89.4287 166.35 89.2498C166.35 89.0709 166.423 88.8993 166.553 88.7728C166.683 88.6463 166.86 88.5752 167.044 88.5752H227.753C227.938 88.5752 228.114 88.6463 228.245 88.7728C228.375 88.8993 228.448 89.0709 228.448 89.2498C228.448 89.4287 228.375 89.6003 228.245 89.7268C228.114 89.8533 227.938 89.9244 227.753 89.9244Z" fill="#D1D3D4"/>
<path d="M149.497 89.9244H112.502C112.318 89.9244 112.141 89.8533 112.011 89.7268C111.881 89.6003 111.808 89.4287 111.808 89.2498C111.808 89.0709 111.881 88.8993 112.011 88.7728C112.141 88.6463 112.318 88.5752 112.502 88.5752H149.497C149.682 88.5752 149.858 88.6463 149.989 88.7728C150.119 88.8993 150.192 89.0709 150.192 89.2498C150.192 89.4287 150.119 89.6003 149.989 89.7268C149.858 89.8533 149.682 89.9244 149.497 89.9244Z" fill="#D1D3D4"/>
<path d="M98.5694 89.9244H91.137C90.9528 89.9244 90.7761 89.8533 90.6458 89.7268C90.5156 89.6003 90.4424 89.4287 90.4424 89.2498C90.4424 89.0709 90.5156 88.8993 90.6458 88.7728C90.7761 88.6463 90.9528 88.5752 91.137 88.5752H98.5694C98.7536 88.5752 98.9303 88.6463 99.0605 88.7728C99.1908 88.8993 99.264 89.0709 99.264 89.2498C99.264 89.4287 99.1908 89.6003 99.0605 89.7268C98.9303 89.8533 98.7536 89.9244 98.5694 89.9244Z" fill="#D1D3D4"/>
<path d="M199.093 109.502H112.502C112.318 109.502 112.141 109.43 112.011 109.304C111.881 109.177 111.808 109.006 111.808 108.827C111.808 108.648 111.881 108.476 112.011 108.35C112.141 108.223 112.318 108.152 112.502 108.152H199.093C199.276 108.156 199.451 108.228 199.58 108.354C199.71 108.48 199.784 108.649 199.787 108.827C199.787 109.006 199.714 109.177 199.584 109.304C199.454 109.43 199.277 109.502 199.093 109.502Z" fill="#D1D3D4"/>
<path d="M98.5694 109.502H91.137C90.9528 109.502 90.7761 109.43 90.6458 109.304C90.5156 109.177 90.4424 109.006 90.4424 108.827C90.4459 108.649 90.5203 108.48 90.6498 108.354C90.7793 108.228 90.9539 108.156 91.137 108.152H98.5694C98.7536 108.152 98.9303 108.223 99.0605 108.35C99.1908 108.476 99.264 108.648 99.264 108.827C99.264 109.006 99.1908 109.177 99.0605 109.304C98.9303 109.43 98.7536 109.502 98.5694 109.502Z" fill="#D1D3D4"/>
<path d="M192.452 129.078H150.776C150.591 129.078 150.415 129.007 150.284 128.881C150.154 128.754 150.081 128.583 150.081 128.404C150.081 128.225 150.154 128.053 150.284 127.927C150.415 127.8 150.591 127.729 150.776 127.729H192.452C192.636 127.733 192.81 127.805 192.94 127.931C193.069 128.056 193.143 128.226 193.147 128.404C193.147 128.583 193.074 128.754 192.944 128.881C192.813 129.007 192.637 129.078 192.452 129.078Z" fill="#D1D3D4"/>
<path d="M167.043 129.078H112.502C112.318 129.078 112.141 129.007 112.011 128.881C111.881 128.754 111.808 128.583 111.808 128.404C111.808 128.225 111.881 128.053 112.011 127.927C112.141 127.8 112.318 127.729 112.502 127.729H167.043C167.228 127.729 167.404 127.8 167.535 127.927C167.665 128.053 167.738 128.225 167.738 128.404C167.738 128.583 167.665 128.754 167.535 128.881C167.404 129.007 167.228 129.078 167.043 129.078Z" fill="#D1D3D4"/>
<path d="M98.5694 129.078H91.137C90.9528 129.078 90.7761 129.007 90.6458 128.881C90.5156 128.754 90.4424 128.583 90.4424 128.404C90.4459 128.226 90.5203 128.056 90.6498 127.931C90.7793 127.805 90.9539 127.733 91.137 127.729H98.5694C98.7536 127.729 98.9303 127.8 99.0605 127.927C99.1908 128.053 99.264 128.225 99.264 128.404C99.264 128.583 99.1908 128.754 99.0605 128.881C98.9303 129.007 98.7536 129.078 98.5694 129.078Z" fill="#D1D3D4"/>
<path d="M171.614 148.116H112.502C112.318 148.116 112.141 148.045 112.011 147.918C111.881 147.792 111.808 147.62 111.808 147.441C111.808 147.262 111.881 147.091 112.011 146.964C112.141 146.838 112.318 146.767 112.502 146.767H171.614C171.798 146.767 171.975 146.838 172.105 146.964C172.235 147.091 172.309 147.262 172.309 147.441C172.309 147.62 172.235 147.792 172.105 147.918C171.975 148.045 171.798 148.116 171.614 148.116Z" fill="#D1D3D4"/>
<path d="M98.5694 148.116H91.137C90.9528 148.116 90.7761 148.045 90.6458 147.918C90.5156 147.792 90.4424 147.62 90.4424 147.441C90.4424 147.262 90.5156 147.091 90.6458 146.964C90.7761 146.838 90.9528 146.767 91.137 146.767H98.5694C98.7536 146.767 98.9303 146.838 99.0605 146.964C99.1908 147.091 99.264 147.262 99.264 147.441C99.264 147.62 99.1908 147.792 99.0605 147.918C98.9303 148.045 98.7536 148.116 98.5694 148.116Z" fill="#D1D3D4"/>
<path d="M387.042 130.886L392.099 116.868C392.099 116.868 388.973 109.704 389.57 105.697C390.168 101.69 392.099 94.4578 393.738 95.1594C395.377 95.861 394.46 99.1261 395.655 104.496C395.655 104.496 405.283 87.4419 407.922 87.9142C410.562 88.3864 410.089 90.3562 409.311 91.584C409.311 91.584 412.201 89.1959 413.159 90.8285C413.432 91.3343 413.574 91.8968 413.574 92.4677C413.574 93.0387 413.432 93.6012 413.159 94.107C413.159 94.107 415.202 91.8808 415.938 93.4054C416.1 93.9779 416.131 94.5781 416.028 95.1633C415.924 95.7486 415.69 96.3046 415.341 96.7919C415.341 96.7919 417.744 94.5658 417.98 96.5491C418.216 98.5324 399.587 137.416 399.587 137.416" fill="#629F89"/>
<path d="M399.67 138.118C399.569 138.137 399.465 138.137 399.364 138.118C399.191 138.039 399.058 137.897 398.992 137.722C398.927 137.548 398.936 137.355 399.017 137.187C406.338 121.928 417.257 98.5459 417.341 96.7109C417.357 96.6444 417.357 96.5751 417.341 96.5086C416.826 96.727 416.355 97.0331 415.951 97.4125C415.819 97.5263 415.649 97.5892 415.472 97.5892C415.295 97.5892 415.125 97.5263 414.993 97.4125C414.858 97.3021 414.771 97.1469 414.748 96.9773C414.725 96.8076 414.767 96.6357 414.868 96.4951C415.156 96.1114 415.355 95.6708 415.448 95.2045C415.542 94.7381 415.529 94.2575 415.41 93.7967C415.396 93.7449 415.367 93.6982 415.326 93.6617C414.736 93.8435 414.214 94.1909 413.826 94.6601C413.71 94.7887 413.55 94.871 413.375 94.891C413.2 94.9109 413.024 94.8671 412.881 94.7681C412.736 94.6673 412.634 94.5177 412.596 94.3482C412.557 94.1788 412.585 94.0015 412.673 93.8506C412.886 93.4527 412.997 93.0107 412.997 92.5621C412.997 92.1136 412.886 91.6716 412.673 91.2737C412.645 91.2178 412.604 91.1691 412.554 91.1316C412.503 91.0941 412.444 91.0688 412.381 91.0578C411.456 91.1879 410.594 91.5878 409.908 92.2046C409.781 92.3127 409.619 92.3724 409.45 92.3724C409.281 92.3724 409.118 92.3127 408.991 92.2046C408.863 92.0999 408.777 91.9551 408.746 91.7951C408.716 91.6352 408.743 91.4699 408.825 91.3276C409.027 91.0542 409.166 90.741 409.231 90.4101C409.296 90.0791 409.285 89.7383 409.2 89.4117C409.033 89.0475 408.589 88.8046 407.88 88.6832C406.407 88.6832 400.753 97.1427 396.377 104.874C396.309 105 396.2 105.103 396.068 105.166C395.936 105.229 395.786 105.249 395.641 105.224C395.497 105.203 395.363 105.141 395.256 105.044C395.15 104.948 395.076 104.823 395.044 104.685C394.64 102.805 394.394 100.896 394.307 98.9776C394.182 97.1292 394.085 96.0633 393.543 95.834C392.779 96.1038 391.07 100.866 390.32 105.845C389.751 109.609 392.765 116.639 392.793 116.639C392.855 116.8 392.855 116.977 392.793 117.138L387.695 131.116C387.664 131.202 387.615 131.282 387.552 131.35C387.489 131.418 387.412 131.473 387.327 131.512C387.241 131.551 387.149 131.573 387.054 131.577C386.96 131.581 386.866 131.566 386.778 131.534C386.689 131.505 386.607 131.459 386.537 131.399C386.467 131.339 386.411 131.266 386.37 131.184C386.33 131.102 386.307 131.014 386.303 130.923C386.299 130.832 386.314 130.742 386.347 130.657L391.307 116.895C390.737 115.546 388.264 109.366 388.834 105.602C389.209 103.106 390.751 95.726 392.835 94.5927C393.013 94.4876 393.214 94.4254 393.422 94.4113C393.63 94.3973 393.838 94.4317 394.029 94.5117C395.419 95.0919 395.516 96.6705 395.669 98.8427C395.738 99.8681 395.808 101.082 396.016 102.459C399.364 96.657 405.477 86.8078 408.061 87.226C408.553 87.2713 409.027 87.4326 409.441 87.6959C409.855 87.9592 410.197 88.3166 410.436 88.7371C410.618 89.1162 410.694 89.5348 410.658 89.9514C411.243 89.6549 411.906 89.5329 412.562 89.6006C412.832 89.6458 413.088 89.7493 413.312 89.9034C413.535 90.0575 413.721 90.2583 413.854 90.4911C414.188 91.0679 414.365 91.7181 414.368 92.38C414.709 92.2201 415.088 92.1547 415.465 92.1911C415.725 92.2363 415.969 92.3439 416.176 92.5041C416.382 92.6644 416.544 92.8721 416.646 93.1086C416.919 93.7391 416.992 94.4345 416.854 95.1054C417.162 95.0103 417.492 95.0103 417.799 95.1054C418.078 95.2115 418.318 95.3972 418.486 95.6379C418.655 95.8787 418.745 96.1634 418.744 96.4546C418.994 98.4784 404.685 128.539 400.295 137.7C400.241 137.819 400.154 137.921 400.043 137.995C399.933 138.069 399.804 138.112 399.67 138.118Z" fill="#15371B"/>
<path d="M294.089 185.502C294.089 185.502 281.586 206.928 280.377 216.332H365.342C365.342 216.332 357.812 198.886 353.534 187.04L294.089 185.502Z" fill="#15371B"/>
<path d="M365.342 216.993H280.377C280.281 216.993 280.185 216.973 280.097 216.936C280.009 216.899 279.929 216.845 279.863 216.777C279.798 216.706 279.748 216.622 279.717 216.532C279.686 216.441 279.674 216.346 279.682 216.251C280.877 206.806 292.977 186.042 293.491 185.219C293.546 185.11 293.634 185.019 293.743 184.959C293.852 184.899 293.977 184.872 294.102 184.882L353.547 186.42C353.689 186.425 353.825 186.472 353.939 186.554C354.053 186.636 354.139 186.749 354.186 186.878C358.354 198.563 365.911 215.94 365.981 216.116C366.025 216.218 366.042 216.331 366.03 216.441C366.018 216.552 365.977 216.658 365.912 216.75C365.844 216.832 365.757 216.897 365.658 216.94C365.558 216.982 365.45 217 365.342 216.993ZM281.183 215.643H364.3C362.716 211.92 356.729 197.82 353.033 187.688L294.491 186.163C292.908 188.916 282.739 206.833 281.183 215.657V215.643Z" fill="#15371B"/>
<path d="M224.515 150.005C224.308 149.988 224.104 149.952 223.904 149.897C220.584 149.087 216.36 144.351 213.818 142.179C207.488 136.93 201.98 130.812 197.467 124.019C196.772 123.127 196.323 122.077 196.161 120.97C196.186 120.02 196.458 119.091 196.953 118.271C198.953 114.561 202.76 110.176 207.192 112.146C208.831 112.875 219.194 121.186 219.194 122.629C218.868 120.082 218.84 117.506 219.111 114.952C219.535 114.755 220.011 114.694 220.473 114.776C220.935 114.859 221.358 115.081 221.681 115.411C222.311 116.084 222.785 116.88 223.07 117.745C223.876 119.715 234.184 145.215 235.046 144.729C232.1 146.47 228.266 150.436 224.515 150.005Z" fill="#629F89"/>
<path d="M225.155 150.733C224.937 150.747 224.719 150.747 224.502 150.733C224.268 150.706 224.036 150.665 223.807 150.612C221.098 149.951 217.986 147.023 215.472 144.662C214.694 143.933 213.985 143.313 213.388 142.746C207.001 137.457 201.445 131.289 196.898 124.437C196.145 123.437 195.667 122.267 195.509 121.037C195.514 119.959 195.816 118.901 196.384 117.974C197.537 115.816 201.76 108.975 207.498 111.525C211.354 114.094 214.954 117.007 218.25 120.228C218.159 118.428 218.211 116.623 218.403 114.831C218.417 114.724 218.456 114.621 218.516 114.53C218.576 114.439 218.656 114.362 218.751 114.305C219.307 114.034 219.938 113.942 220.552 114.042C221.166 114.141 221.732 114.427 222.168 114.858C222.875 115.601 223.406 116.485 223.724 117.448L224.016 118.163C232.74 139.67 234.824 143.38 235.296 143.987C235.419 144.036 235.525 144.117 235.603 144.221C235.681 144.324 235.729 144.447 235.74 144.575C235.752 144.703 235.727 144.832 235.668 144.947C235.609 145.062 235.519 145.16 235.407 145.228C234.657 145.687 233.851 146.294 232.99 146.928C230.601 148.723 227.933 150.733 225.155 150.733ZM205.039 112.335C201.33 112.335 198.523 116.963 197.662 118.568C197.226 119.285 196.982 120.097 196.954 120.929C197.114 121.909 197.52 122.835 198.134 123.628C202.613 130.358 208.074 136.421 214.347 141.626C214.986 142.166 215.736 142.854 216.486 143.596C218.862 145.836 221.821 148.628 224.155 149.195C224.323 149.241 224.495 149.272 224.669 149.289C227.155 149.573 229.823 147.576 232.184 145.809C232.823 145.336 233.435 144.878 234.032 144.459C232.935 142.759 230.295 137.214 222.752 118.649L222.46 117.934C222.214 117.162 221.802 116.449 221.251 115.843C221.07 115.668 220.852 115.536 220.612 115.454C220.371 115.372 220.115 115.344 219.862 115.37C219.635 117.738 219.672 120.122 219.973 122.481V122.67C219.952 122.828 219.874 122.975 219.754 123.084C219.633 123.193 219.477 123.258 219.313 123.268C219.148 123.277 218.986 123.231 218.853 123.137C218.719 123.042 218.624 122.906 218.584 122.751C218.576 122.715 218.576 122.678 218.584 122.643C218.056 121.199 208.609 113.536 207.012 112.82C206.376 112.513 205.679 112.347 204.969 112.335H205.039Z" fill="#15371B"/>
<path d="M361.215 105.279C361.215 105.279 368.425 112.025 370.342 114.723C372.259 117.421 374.038 151.624 374.038 151.624L384.957 125.989L403.295 132.937C403.295 132.937 392.098 188.457 380.317 189.604C368.536 190.751 345.684 169.15 345.684 169.15L361.215 105.279Z" fill="#194349"/>
<path d="M307.689 99.7332C307.689 99.7332 286.573 103.781 281.419 110.001C276.265 116.22 291.894 172.698 292.199 188.254C292.199 188.254 328.652 194.434 353.533 187.081C353.533 187.081 362.174 157.304 364.425 140.182C366.676 123.061 363.786 108.112 361.216 105.319C358.646 102.526 348.796 100.664 348.796 100.664C348.796 100.664 312.51 100.637 307.689 99.7332Z" fill="#194349"/>
<path d="M365.98 99.2205C366.44 97.2266 366.687 95.1921 366.716 93.149C366.758 91.9287 366.565 90.7115 366.147 89.5601C364.591 85.8094 359.409 84.1633 358.562 80.1157C357.853 76.7832 359.145 73.8689 358.242 70.6713C357.339 67.4737 356.464 66.1514 356.853 62.4546C357.421 55.9193 356.324 49.3486 353.658 43.3229C351.185 37.6562 347.67 35.0523 343.405 30.7618C342.399 29.8117 341.196 29.0804 339.876 28.6166C328.596 24.3126 316.26 27.7261 310.564 38.5467C307.396 44.5642 306.021 51.4046 302.353 57.1522C299.77 61.1999 296.046 64.7483 295.06 69.4165C294.199 73.4641 295.769 77.4443 294.782 81.5594C294.487 82.952 293.936 84.2818 293.157 85.4855C292.255 86.6765 291.205 87.755 290.031 88.6967C287.381 90.8592 285.045 93.3599 283.085 96.1308C282.457 97.0924 281.922 98.1087 281.487 99.1665L365.98 99.2205Z" fill="#629F89"/>
<path d="M365.98 99.922H281.418C281.299 99.9228 281.183 99.8949 281.078 99.8407C280.974 99.7865 280.885 99.7077 280.82 99.6117C280.769 99.511 280.742 99.4002 280.742 99.2879C280.742 99.1755 280.769 99.0647 280.82 98.9641C281.275 97.8686 281.833 96.8163 282.487 95.8204C284.492 92.9949 286.875 90.4406 289.572 88.2244L289.725 88.103C290.798 87.238 291.759 86.2505 292.587 85.1617C293.319 84.0275 293.836 82.7756 294.115 81.4649C294.458 79.4749 294.487 77.4457 294.199 75.4474C293.943 73.4101 293.985 71.3479 294.324 69.322C295.032 65.8951 297.172 63.0617 299.228 60.3093C300.075 59.176 300.95 58.0157 301.7 56.8284C303.619 53.5644 305.193 50.1198 306.396 46.5475C307.383 43.7086 308.552 40.9328 309.897 38.2364C315.454 27.5507 327.957 23.3276 340.099 27.9824C341.521 28.4728 342.816 29.2604 343.891 30.2895C344.711 31.1126 345.503 31.8816 346.267 32.6102C349.462 35.6999 352.24 38.3713 354.296 43.0665C357.006 49.1995 358.117 55.8862 357.533 62.5355C357.318 64.5804 357.599 66.6458 358.353 68.5665C358.548 69.1601 358.756 69.7808 358.95 70.4958C359.344 72.1774 359.424 73.9138 359.187 75.6228C359.004 77.086 359.036 78.567 359.284 80.0212C359.687 81.9236 361.257 83.2863 362.937 84.7299C364.579 85.9439 365.91 87.509 366.827 89.3037C367.277 90.5371 367.484 91.8414 367.439 93.149C367.417 95.2415 367.17 97.3261 366.702 99.3688C366.667 99.5282 366.575 99.6706 366.443 99.7715C366.312 99.8725 366.148 99.9257 365.98 99.922ZM282.515 98.5728H365.466C365.851 96.7979 366.051 94.9898 366.063 93.176C366.107 92.0437 365.933 90.9136 365.549 89.8434C364.712 88.2511 363.509 86.8664 362.034 85.7958C360.27 84.2577 358.436 82.6792 357.867 80.3315C357.592 78.7533 357.549 77.1451 357.742 75.5554C357.96 74.0008 357.899 72.4213 357.561 70.8871C357.367 70.199 357.158 69.5379 356.978 69.0117C356.16 66.9183 355.855 64.6686 356.089 62.4411C356.657 56.0087 355.583 49.5394 352.963 43.6062C351.018 39.1673 348.462 36.7118 345.239 33.6086C344.475 32.8665 343.669 32.0975 342.849 31.261C341.917 30.3776 340.798 29.701 339.571 29.2776C328.11 24.9062 316.426 28.8459 311.161 38.8705C309.853 41.4986 308.712 44.2021 307.744 46.9657C306.519 50.6358 304.913 54.1754 302.951 57.53C302.173 58.7443 301.284 59.9316 300.422 61.0784C298.352 63.7768 296.407 66.4752 295.755 69.5649C295.444 71.4623 295.411 73.3927 295.657 75.299C295.938 77.4545 295.872 79.6392 295.463 81.7752C295.154 83.2508 294.57 84.6592 293.74 85.9307C292.843 87.1176 291.803 88.1957 290.642 89.1418L290.489 89.2633C287.892 91.395 285.594 93.8491 283.654 96.5625C283.226 97.1913 282.845 97.8496 282.515 98.5323V98.5728Z" fill="#15371B"/>
<path d="M339.071 96.6571C339.071 96.6571 341.85 136.121 327.68 133.477C308.758 129.564 317.358 101.838 317.358 101.838L317.677 96.6571L318.386 84.6087L319.067 73.3428L338.96 73.127L339.724 82.3285L339.96 85.3103L339.071 96.6571Z" fill="#629F89"/>
<path d="M328.972 134.3C328.477 134.296 327.984 134.246 327.499 134.151C325.436 133.792 323.477 133.003 321.758 131.838C320.038 130.674 318.599 129.162 317.539 127.405C311.857 118.069 316.149 103.12 316.608 101.77L318.317 73.3562C318.327 73.1808 318.407 73.016 318.538 72.8956C318.67 72.7752 318.844 72.7083 319.025 72.7086L338.919 72.4927C339.099 72.4919 339.273 72.5565 339.407 72.6738C339.54 72.7911 339.624 72.9527 339.641 73.1268L340.641 85.2697L339.738 96.6704C339.863 98.4379 341.628 125.557 333.473 132.6C332.245 133.694 330.639 134.3 328.972 134.3ZM319.706 74.0982L318.039 101.946C318.045 102 318.045 102.054 318.039 102.108C318.039 102.27 313.288 117.732 318.803 126.785C319.767 128.367 321.072 129.729 322.628 130.777C324.184 131.825 325.955 132.534 327.819 132.856C328.651 133.038 329.516 133.02 330.339 132.804C331.162 132.588 331.918 132.18 332.542 131.615C340.28 124.95 338.363 97.0482 338.335 96.7784V96.6704L339.238 85.3236L338.294 73.8959L319.706 74.0982Z" fill="#15371B"/>
<path d="M339.918 85.3102C338.37 87.9446 336.169 90.1615 333.514 91.7594C329.263 94.4578 323.261 96.8324 318.052 96.0094L318.399 84.6086C322.206 85.1143 326.067 85.1143 329.874 84.6086C333.271 84.4263 336.609 83.6683 339.738 82.3689L339.918 85.3102Z" fill="#15371B"/>
<path d="M320.108 96.846C319.364 96.8435 318.62 96.7848 317.885 96.6706C317.72 96.6418 317.57 96.5568 317.463 96.4307C317.356 96.3047 317.299 96.1458 317.302 95.9825L317.663 84.5817C317.665 84.4878 317.689 84.3956 317.732 84.3116C317.775 84.2276 317.837 84.154 317.913 84.096C317.985 84.0309 318.071 83.9835 318.165 83.9576C318.26 83.9318 318.359 83.9284 318.455 83.9476C322.197 84.448 325.993 84.448 329.735 83.9476C333.055 83.768 336.318 83.0284 339.377 81.7619C339.477 81.7088 339.589 81.6809 339.703 81.6809C339.817 81.6809 339.929 81.7088 340.03 81.7619C340.127 81.8159 340.209 81.8919 340.27 81.9836C340.33 82.0752 340.367 82.1797 340.377 82.2881L340.613 85.2698C340.628 85.3969 340.599 85.5253 340.53 85.6341C338.925 88.3993 336.62 90.7212 333.834 92.3801C329.776 95.0819 325.022 96.6287 320.108 96.846ZM318.719 95.4968C322.887 95.942 328.166 94.377 333.097 91.2603C335.623 89.7707 337.732 87.6993 339.238 85.2294L339.071 83.3405C336.122 84.3863 333.035 85.0222 329.902 85.2294C326.297 85.7187 322.643 85.7686 319.025 85.3778L318.719 95.4968Z" fill="#15371B"/>
<path d="M329.806 87.3205H327.764C323.127 87.3673 318.661 85.6241 315.348 82.4743C312.034 79.3245 310.144 75.0257 310.093 70.5229C310.284 65.3042 310.79 60.1009 311.607 54.9396C311.607 54.9396 319.623 52.1602 325.999 49.8126C336.641 45.9134 339.503 40.3682 339.503 40.3682C339.836 44.0584 340.677 47.6886 342.003 51.1618C343.371 53.6499 344.956 56.0196 346.741 58.2451C346.741 58.2451 347.06 66.6102 347.088 70.1181C347.119 72.3505 346.696 74.5669 345.844 76.6404C344.992 78.7138 343.727 80.6037 342.122 82.2017C340.516 83.7996 338.602 85.0743 336.489 85.9527C334.376 86.831 332.104 87.2958 329.806 87.3205Z" fill="#629F89"/>
<path d="M327.568 88.0357C322.766 88.0323 318.161 86.1875 314.752 82.9028C311.344 79.6181 309.409 75.1591 309.369 70.496C309.561 65.241 310.071 60.0015 310.897 54.8048C310.912 54.6798 310.962 54.5613 311.044 54.4633C311.125 54.3654 311.233 54.2919 311.356 54.2516C311.439 54.2516 319.497 51.4048 325.748 49.1111C335.945 45.3738 338.835 40.0175 338.862 39.9635C338.902 39.7876 339.012 39.6339 339.167 39.5354C339.322 39.437 339.511 39.4016 339.693 39.4369C339.875 39.4723 340.036 39.5755 340.14 39.7244C340.244 39.8733 340.284 40.0561 340.252 40.2334C340.579 43.8623 341.401 47.4329 342.697 50.8516C344.028 53.3248 345.571 55.6852 347.309 57.9079C347.4 58.0252 347.453 58.1661 347.462 58.3127C347.462 58.3937 347.767 66.7317 347.809 70.1992C347.833 72.525 347.385 74.8325 346.49 76.9899C345.595 79.1473 344.271 81.1122 342.594 82.7725C340.916 84.4327 338.919 85.7556 336.715 86.6657C334.511 87.5757 332.144 88.055 329.749 88.0762H327.512L327.568 88.0357ZM312.287 55.4929C311.518 60.4764 311.054 65.4997 310.897 70.5365C310.952 74.8066 312.728 78.8856 315.845 81.8977C318.962 84.9097 323.171 86.6145 327.568 86.646H327.749H329.791C334.237 86.5962 338.481 84.8348 341.591 81.7486C344.701 78.6624 346.423 74.5037 346.378 70.1857C346.378 67.0556 346.086 59.9048 346.031 58.5556C344.256 56.3418 342.684 53.9806 341.335 51.4992C340.198 48.537 339.411 45.4592 338.987 42.3246C337.32 44.335 333.597 47.8159 326.262 50.5143C320.802 52.5111 313.967 54.8857 312.245 55.4929H312.287Z" fill="#15371B"/>
<path d="M327.666 70.3746C326.905 70.3723 326.145 70.3318 325.388 70.2532C325.177 70.2288 324.974 70.1577 324.796 70.0454C324.618 69.9331 324.469 69.7827 324.36 69.6056C322.971 67.4873 326.055 59.1223 327.013 56.5992C327.085 56.4281 327.221 56.2905 327.395 56.215C327.568 56.1396 327.765 56.1322 327.944 56.1945C328.119 56.261 328.261 56.3913 328.338 56.5576C328.416 56.7238 328.424 56.913 328.361 57.085C326.221 62.6976 324.929 68.2159 325.582 68.8905C327.197 69.034 328.822 69.0069 330.431 68.8095C330.591 68.8256 330.742 68.8935 330.858 69.0024C330.974 69.1113 331.05 69.2548 331.072 69.4102C331.094 69.5655 331.063 69.7236 330.982 69.8593C330.901 69.995 330.775 70.1004 330.625 70.1588C329.645 70.2927 328.656 70.3648 327.666 70.3746Z" fill="#15371B"/>
<path d="M336.615 62.6617C337.282 62.6546 337.809 61.3562 337.791 59.7617C337.773 58.1672 337.217 56.8804 336.549 56.8875C335.882 56.8946 335.355 58.193 335.374 59.7875C335.392 61.382 335.947 62.6689 336.615 62.6617Z" fill="#15371B"/>
<path d="M320.677 62.2923C321.345 62.2852 321.871 60.9868 321.853 59.3923C321.835 57.7978 321.279 56.511 320.612 56.5181C319.944 56.5252 319.418 57.8236 319.436 59.4181C319.454 61.0126 320.01 62.2995 320.677 62.2923Z" fill="#15371B"/>
<path d="M318.011 96.657C314.232 94.6872 308.286 97.6285 307.689 99.6793C307.092 101.73 309.453 134.07 318.011 139.049C321.72 141.221 328.389 133.477 328.389 133.477C328.389 133.477 318.845 129.416 318.011 96.657Z" fill="#629F89"/>
<path d="M319.484 140.128C318.835 140.138 318.196 139.975 317.636 139.656C308.606 134.394 306.369 101.757 306.994 99.5038C307.383 98.1546 309.259 96.8863 310.884 96.2117C312.039 95.6557 313.306 95.3519 314.594 95.3216C315.883 95.2913 317.163 95.5353 318.344 96.0363C318.459 96.0938 318.554 96.1811 318.621 96.2883C318.687 96.3955 318.721 96.5185 318.719 96.6435C319.525 128.309 328.597 132.802 328.68 132.843C328.78 132.886 328.869 132.951 328.939 133.033C329.009 133.115 329.058 133.211 329.083 133.315C329.107 133.42 329.106 133.528 329.082 133.633C329.058 133.738 329.011 133.837 328.944 133.922C328.319 134.637 323.457 140.128 319.484 140.128ZM315.107 96.7109C313.847 96.7278 312.604 96.9941 311.454 97.4935C310.161 97.8857 309.067 98.7326 308.384 99.8681C308.147 100.718 308.523 109.083 310.134 118.19C312.107 129.308 315.038 136.512 318.372 138.428C320.734 139.778 325.318 135.73 327.305 133.598C324.915 131.831 318.067 124.397 317.302 97.0752C316.604 96.8112 315.857 96.6873 315.107 96.7109Z" fill="#15371B"/>
<path d="M339.072 96.657C342.837 94.6872 348.796 97.6285 349.38 99.6793C349.963 101.73 347.616 134.07 339.072 139.049C335.363 141.221 328.694 133.477 328.694 133.477C328.694 133.477 338.197 129.416 339.072 96.657Z" fill="#629F89"/>
<path d="M337.544 140.128C333.584 140.128 328.722 134.637 328.097 133.922C328.028 133.837 327.979 133.739 327.953 133.634C327.927 133.53 327.924 133.421 327.944 133.315C327.97 133.209 328.021 133.112 328.093 133.029C328.166 132.947 328.258 132.883 328.361 132.843C328.444 132.843 337.502 128.309 338.308 96.6435C338.312 96.5197 338.349 96.3989 338.414 96.2927C338.48 96.1864 338.572 96.0982 338.683 96.0363C339.864 95.5353 341.144 95.2913 342.433 95.3216C343.722 95.3519 344.988 95.6557 346.143 96.2117C347.768 96.8863 349.644 98.1141 350.033 99.5038C350.672 101.757 348.435 134.394 339.391 139.656C338.833 139.978 338.193 140.142 337.544 140.128ZM329.736 133.625C331.82 135.865 336.28 139.845 338.655 138.455C342.003 136.512 344.934 129.308 346.893 118.217C348.063 112.176 348.654 106.042 348.658 99.8951C347.962 98.7646 346.865 97.9201 345.573 97.5205C343.754 96.6429 341.651 96.5022 339.725 97.1292C338.961 124.424 332.126 131.858 329.736 133.625Z" fill="#15371B"/>
<path d="M319.025 73.3428L338.919 73.127C338.919 73.127 335.891 83.3269 328.278 82.3285C320.665 81.3301 319.025 73.3428 319.025 73.3428Z" fill="#629F89"/>
<path d="M329.347 83.0975C328.961 83.0969 328.576 83.0699 328.194 83.0166C320.164 81.9642 318.344 73.5721 318.33 73.4777C318.31 73.3779 318.312 73.2749 318.337 73.1761C318.363 73.0773 318.41 72.9853 318.477 72.9066C318.543 72.8278 318.627 72.7644 318.722 72.7208C318.816 72.6773 318.92 72.6547 319.025 72.6547L338.918 72.4388C339.029 72.4343 339.139 72.4567 339.238 72.5038C339.338 72.5509 339.424 72.6213 339.488 72.7086C339.556 72.7963 339.602 72.8976 339.624 73.0051C339.645 73.1125 339.642 73.2233 339.613 73.3293C339.488 73.7475 336.612 83.0975 329.347 83.0975ZM319.956 74.0983C320.595 76.0816 322.734 80.9658 328.374 81.7078C334.014 82.4499 336.987 76.311 337.918 73.9094L319.956 74.0983Z" fill="#15371B"/>
<path d="M281.418 109.947L255.759 150.423L230.573 136.243L215.597 145.161C215.597 145.161 251.814 192.1 269.554 184.153C277.792 180.47 304.174 141.073 304.174 141.073L281.418 109.947Z" fill="#194349"/>
<path d="M355.02 182.44H354.812C354.722 182.413 354.639 182.37 354.567 182.312C354.494 182.255 354.434 182.184 354.39 182.103C354.347 182.023 354.319 181.935 354.311 181.845C354.302 181.754 354.312 181.663 354.34 181.576C354.492 181.063 370.093 130.023 362.911 111.566C362.845 111.387 362.854 111.19 362.938 111.018C363.021 110.846 363.172 110.713 363.356 110.648C363.54 110.584 363.743 110.593 363.92 110.674C364.097 110.755 364.234 110.901 364.3 111.08C371.663 129.969 356.423 179.89 355.771 181.967C355.718 182.116 355.616 182.244 355.48 182.33C355.344 182.415 355.182 182.454 355.02 182.44Z" fill="#15371B"/>
<path d="M291.838 184.855C291.663 184.856 291.495 184.794 291.364 184.682C291.233 184.57 291.15 184.416 291.129 184.247C291.06 183.802 284.683 138.82 282.544 128.687C282.51 128.507 282.549 128.321 282.653 128.168C282.756 128.015 282.916 127.906 283.1 127.864C283.285 127.828 283.478 127.865 283.637 127.965C283.796 128.066 283.907 128.224 283.947 128.404C286.1 138.59 292.477 183.613 292.546 184.059C292.57 184.241 292.519 184.425 292.405 184.571C292.291 184.717 292.122 184.814 291.935 184.841L291.838 184.855Z" fill="#15371B"/>
<path d="M368.773 164.738C368.682 164.757 368.587 164.757 368.495 164.738C368.322 164.666 368.184 164.532 368.111 164.363C368.039 164.194 368.037 164.004 368.106 163.834L383.207 128.336C383.281 128.168 383.42 128.034 383.593 127.963C383.767 127.893 383.963 127.891 384.138 127.958C384.225 127.993 384.304 128.043 384.371 128.107C384.438 128.171 384.491 128.247 384.527 128.331C384.563 128.416 384.582 128.506 384.582 128.597C384.582 128.688 384.563 128.778 384.527 128.862L369.44 164.36C369.376 164.477 369.279 164.574 369.162 164.641C369.044 164.707 368.909 164.741 368.773 164.738Z" fill="#15371B"/>
<path d="M403.295 111.997C403.151 111.995 403.011 111.951 402.893 111.872C402.774 111.793 402.682 111.681 402.628 111.552C400.877 107.262 395.487 105.17 395.446 105.143C395.354 105.111 395.271 105.061 395.199 104.997C395.128 104.932 395.07 104.855 395.03 104.769C394.989 104.684 394.966 104.591 394.962 104.496C394.959 104.402 394.974 104.308 395.008 104.219C395.042 104.131 395.093 104.049 395.159 103.98C395.225 103.911 395.305 103.855 395.393 103.815C395.481 103.776 395.577 103.754 395.674 103.75C395.771 103.746 395.868 103.761 395.96 103.794C396.21 103.889 401.975 106.128 403.961 110.985C403.999 111.07 404.019 111.161 404.019 111.254C404.019 111.346 404 111.438 403.962 111.522C403.924 111.607 403.869 111.683 403.799 111.747C403.73 111.81 403.648 111.858 403.559 111.889C403.482 111.947 403.391 111.984 403.295 111.997Z" fill="#15371B"/>
<path d="M403.295 102.499C403.185 102.498 403.076 102.475 402.975 102.432C402.812 102.336 402.694 102.182 402.647 102.003C402.6 101.823 402.628 101.633 402.725 101.474L408.824 91.2468C408.925 91.0908 409.083 90.9785 409.267 90.9333C409.451 90.8881 409.645 90.9134 409.81 91.004C409.972 91.097 410.091 91.2477 410.14 91.4241C410.189 91.6005 410.166 91.7886 410.074 91.9484L403.962 102.175C403.89 102.282 403.791 102.368 403.674 102.425C403.556 102.482 403.426 102.508 403.295 102.499Z" fill="#15371B"/>
<path d="M408.533 104.064C408.432 104.083 408.328 104.083 408.227 104.064C408.141 104.024 408.064 103.967 408.001 103.898C407.937 103.828 407.888 103.747 407.857 103.66C407.826 103.572 407.814 103.479 407.82 103.386C407.826 103.293 407.851 103.203 407.894 103.12L412.589 93.8641C412.672 93.6995 412.819 93.5737 412.998 93.5142C413.176 93.4547 413.372 93.4666 413.541 93.5471C413.711 93.6276 413.84 93.7702 413.901 93.9435C413.963 94.1168 413.95 94.3067 413.868 94.4713L409.186 103.74C409.116 103.845 409.018 103.93 408.904 103.987C408.789 104.044 408.661 104.07 408.533 104.064Z" fill="#15371B"/>
<path d="M410.908 107.41C410.812 107.429 410.712 107.429 410.616 107.41C410.53 107.374 410.452 107.321 410.387 107.255C410.322 107.189 410.271 107.11 410.237 107.025C410.204 106.94 410.188 106.849 410.191 106.757C410.194 106.666 410.216 106.576 410.255 106.493L414.756 96.5626C414.835 96.3957 414.978 96.2654 415.155 96.1998C415.331 96.1342 415.527 96.1385 415.701 96.2118C415.875 96.2859 416.012 96.4238 416.082 96.5956C416.153 96.7674 416.15 96.9592 416.076 97.1292L411.561 107.046C411.5 107.161 411.405 107.257 411.29 107.321C411.174 107.386 411.041 107.417 410.908 107.41Z" fill="#15371B"/>
<path d="M217.001 134.88C216.86 134.878 216.724 134.837 216.606 134.764C216.488 134.69 216.394 134.585 216.334 134.462C212.555 125.989 218.751 122.049 218.807 122.009C218.968 121.912 219.161 121.881 219.345 121.921C219.53 121.961 219.69 122.07 219.793 122.224C219.845 122.3 219.88 122.386 219.898 122.475C219.915 122.565 219.914 122.657 219.895 122.746C219.876 122.835 219.838 122.919 219.785 122.994C219.732 123.069 219.664 123.133 219.585 123.182C219.349 123.331 214.375 126.569 217.654 133.895C217.728 134.065 217.731 134.257 217.66 134.429C217.59 134.6 217.453 134.738 217.279 134.813C217.192 134.855 217.097 134.878 217.001 134.88Z" fill="#15371B"/>
<path d="M55.5169 325.711C55.5169 325.711 53.961 333.105 56.3643 334.737C58.7677 336.37 79.4949 329.557 78.8976 327.263C78.3002 324.969 66.5473 323.795 66.5473 323.795C66.5473 323.795 57.309 326.399 55.5169 325.711Z" fill="#194349"/>
<path d="M57.6841 335.628C57.0889 335.672 56.4927 335.555 55.9615 335.291C53.2664 333.456 54.6695 326.373 54.8362 325.577C54.8548 325.476 54.8971 325.381 54.9598 325.299C55.0224 325.217 55.1038 325.151 55.1974 325.104C55.2907 325.061 55.3928 325.039 55.4961 325.039C55.5995 325.039 55.7015 325.061 55.7948 325.104C56.7534 325.509 61.9213 324.43 66.3529 323.162C66.4397 323.141 66.5301 323.141 66.6169 323.162C69.4926 323.445 78.9115 324.578 79.5783 327.128C79.8006 328.005 78.8837 328.72 78.1891 329.192C74.5355 331.608 62.5187 335.628 57.6841 335.628ZM56.0727 326.481C55.5864 329.179 55.4058 333.227 56.7673 334.185C57.3368 334.576 61.0878 334.185 67.6171 332.134C74.1465 330.083 77.9807 327.992 78.2308 327.317C77.9668 326.427 72.6739 325.091 66.6169 324.484C64.9776 324.942 58.7677 326.656 56.0727 326.481Z" fill="#15371B"/>
<path d="M25.4396 325.711C25.4396 325.711 25.1895 334.265 26.1481 335.318C27.1066 336.37 48.3757 334.157 47.3754 331.365C46.3752 328.572 37.7759 325.711 37.7759 325.711H25.4396Z" fill="#194349"/>
<path d="M28.6208 336.235C27.5991 336.367 26.5598 336.203 25.634 335.763C24.606 334.643 24.6754 328.342 24.7449 325.684C24.7521 325.51 24.8284 325.345 24.9579 325.225C25.0874 325.104 25.26 325.036 25.4395 325.037H37.7758H38.012C38.915 325.347 46.8614 328.086 48.0283 331.095C48.1811 331.499 48.2506 332.295 46.9725 333.051C44.2913 334.643 33.886 336.235 28.6208 336.235ZM26.6343 334.805C28.3291 335.291 41.0544 334.13 45.5416 332.268C46.5974 331.823 46.7225 331.54 46.7225 331.54C46.0278 329.799 40.846 327.492 37.6647 326.386H26.1202C26.0508 330.002 26.2175 333.995 26.6343 334.805Z" fill="#15371B"/>
<path d="M24.4814 297.486L25.44 325.711C25.44 325.711 34.5394 329.192 37.7763 325.711L40.3047 294.68L24.4814 297.486Z" fill="#629F89"/>
<path d="M33.1229 327.924C30.4109 327.839 27.7314 327.324 25.1904 326.4C25.0631 326.352 24.9531 326.269 24.874 326.161C24.795 326.053 24.7504 325.925 24.7459 325.792L23.7179 297.5C23.7152 297.336 23.7725 297.177 23.8794 297.051C23.9863 296.925 24.1358 296.84 24.3013 296.812L40.1802 294.019C40.2837 294.004 40.3893 294.011 40.4899 294.039C40.5905 294.066 40.6838 294.115 40.7637 294.181C40.8444 294.248 40.9068 294.334 40.9456 294.43C40.9843 294.527 40.9982 294.631 40.9859 294.734L38.4714 325.765C38.4606 325.914 38.4023 326.055 38.3047 326.17C37.6151 326.798 36.7976 327.278 35.9051 327.58C35.0126 327.882 34.0649 328 33.1229 327.924ZM26.1768 325.226C28.8163 326.143 34.79 327.614 37.1656 325.401L39.5967 295.489L25.1904 298.066L26.1768 325.226Z" fill="#15371B"/>
<path d="M66.5472 293.519V323.796C64.9673 324.884 63.1593 325.62 61.2525 325.951C59.3458 326.282 57.3872 326.2 55.5168 325.711L48.6679 289.283L66.5472 293.519Z" fill="#629F89"/>
<path d="M58.9617 326.831C57.7368 326.831 56.5175 326.672 55.3358 326.359C55.2092 326.327 55.0947 326.261 55.006 326.167C54.9173 326.074 54.8582 325.958 54.8357 325.833L47.9868 289.404C47.9683 289.294 47.9776 289.182 48.0139 289.076C48.0502 288.97 48.1124 288.874 48.1952 288.797C48.2788 288.72 48.3813 288.664 48.4931 288.636C48.6049 288.608 48.7223 288.607 48.8342 288.635L66.783 292.872C66.9349 292.903 67.0707 292.985 67.1671 293.103C67.2635 293.221 67.3143 293.369 67.3109 293.519V323.796C67.3094 323.895 67.2863 323.994 67.2432 324.084C67.2002 324.175 67.1381 324.256 67.0609 324.322C64.6975 325.96 61.8651 326.837 58.9617 326.831ZM56.1138 325.158C57.7699 325.525 59.4852 325.562 61.1565 325.267C62.8278 324.973 64.4203 324.353 65.8384 323.445V294.019L49.5288 290.187L56.1138 325.158Z" fill="#15371B"/>
<path d="M19.7585 218.773L17.5635 302.019C17.5635 302.019 52.0441 311.464 74.3411 297.486L58.4484 226.923L19.7585 218.773Z" fill="#15371B"/>
<path d="M42.8466 305.757C34.2564 305.731 25.7012 304.693 17.3682 302.667C17.2191 302.63 17.0878 302.544 16.9966 302.423C16.9055 302.303 16.8601 302.155 16.8681 302.006L19.0631 218.76C19.0625 218.66 19.0861 218.562 19.132 218.473C19.1779 218.384 19.2447 218.307 19.327 218.247C19.4066 218.187 19.4985 218.143 19.5968 218.12C19.695 218.097 19.7973 218.094 19.8966 218.112L58.6282 226.208C58.7581 226.234 58.8772 226.296 58.971 226.387C59.0648 226.478 59.1291 226.594 59.1561 226.72L75.0211 297.284C75.0519 297.419 75.0391 297.56 74.9844 297.688C74.9297 297.816 74.8358 297.924 74.7155 297.999C65.1437 304.043 53.2936 305.757 42.8466 305.757ZM18.2712 301.507C22.6195 302.586 53.2658 309.534 73.5624 297.162L57.8919 227.489L20.3828 219.61L18.2712 301.507Z" fill="#15371B"/>
<path d="M61.5186 203.204C61.5186 203.204 67.4506 182.345 70.3263 180.362C73.2019 178.378 78.7866 175.936 78.7866 178.729C78.7866 181.522 74.619 203.892 68.1729 203.19C61.7269 202.489 61.5186 203.204 61.5186 203.204Z" fill="#629F89"/>
<path d="M68.4781 203.878H68.0891C63.4352 203.379 62.2405 203.635 62.0043 203.716C61.918 203.798 61.8107 203.857 61.6935 203.885C61.5763 203.914 61.4535 203.911 61.3375 203.878C61.1617 203.834 61.0108 203.724 60.9173 203.573C60.8239 203.421 60.7951 203.24 60.8374 203.069V202.947C61.5737 200.37 66.9361 181.873 69.8812 179.836C71.4233 178.77 76.2995 175.99 78.4667 177.137C78.7787 177.297 79.0365 177.542 79.209 177.841C79.3815 178.14 79.4614 178.481 79.4391 178.824C79.4391 181.36 76.3689 198.333 71.2149 202.799C70.4689 203.471 69.4955 203.855 68.4781 203.878ZM63.6436 202.273C65.1811 202.293 66.7163 202.397 68.242 202.583C68.6289 202.602 69.0155 202.54 69.3753 202.4C69.735 202.261 70.0593 202.047 70.3258 201.774C74.8686 197.834 78.0916 181.536 78.0916 178.837C78.0916 178.459 77.9526 178.378 77.8693 178.351C76.8968 177.852 73.4238 179.161 70.7287 181.05C68.8671 182.399 64.8522 194.353 62.5183 202.381C62.824 202.309 63.1991 202.273 63.6436 202.273Z" fill="#15371B"/>
<path d="M92.6227 198.225C92.0809 198.225 69.0059 194.744 69.0059 194.744L82.0646 162.174L107.599 164.67L92.6227 198.225Z" fill="#629F89"/>
<path d="M92.6227 198.954C92.0809 198.954 74.271 196.255 68.8253 195.459C68.7222 195.445 68.6238 195.409 68.5373 195.353C68.4507 195.296 68.3782 195.222 68.3251 195.135C68.2839 195.042 68.2626 194.941 68.2626 194.839C68.2626 194.737 68.2839 194.636 68.3251 194.542L81.4116 161.918C81.4643 161.778 81.5648 161.66 81.6964 161.584C81.8279 161.508 81.9825 161.478 82.134 161.5L107.668 163.996C107.777 164.009 107.88 164.047 107.972 164.105C108.063 164.164 108.14 164.242 108.196 164.333C108.247 164.427 108.274 164.531 108.274 164.637C108.274 164.742 108.247 164.847 108.196 164.94L93.2756 198.549C93.219 198.671 93.1271 198.774 93.0112 198.846C92.8952 198.917 92.7602 198.955 92.6227 198.954ZM69.8949 194.258C78.2303 195.5 89.7053 197.227 92.192 197.55L106.543 165.25L82.4674 162.889L69.8949 194.258Z" fill="#15371B"/>
<path d="M15.7569 144.486C13.471 144.522 11.2164 145.008 9.13029 145.916C5.50441 147.387 1.97578 149.964 0.975535 153.62C0.183676 156.616 1.19781 159.786 2.55925 162.579C3.92069 165.372 5.61555 168.084 6.31016 171.106C7.00477 174.128 6.39351 177.69 3.86512 179.566C7.21681 178.511 10.3698 176.934 13.2007 174.897C14.879 173.706 16.0306 171.942 16.4237 169.959C16.5029 168.317 16.1791 166.68 15.479 165.183C14.4574 162.95 13.8372 160.563 13.6453 158.127C13.5628 156.905 13.8243 155.684 14.4019 154.595C14.9795 153.507 15.8513 152.591 16.9238 151.947C18.8688 150.963 25.0647 151.381 24.2728 147.9C23.7172 145.269 17.9658 144.527 15.7569 144.486Z" fill="#629F89"/>
<path d="M3.86517 180.24C3.7416 180.242 3.61981 180.211 3.51236 180.152C3.40491 180.093 3.31569 180.007 3.25391 179.903C3.17426 179.759 3.14871 179.593 3.18167 179.433C3.21464 179.273 3.30405 179.129 3.43451 179.026C5.93512 177.177 6.21296 173.629 5.62949 171.241C5.02937 169.076 4.15685 166.992 3.03164 165.035C2.65654 164.319 2.28145 163.604 1.92026 162.876C0.100371 159.112 -0.399751 156.13 0.308755 153.431C1.53127 148.858 6.19907 146.362 8.86638 145.336C11.0519 144.382 13.4166 143.877 15.8125 143.852C18.1186 143.852 24.2729 144.662 25.0092 147.9C25.1035 148.254 25.1226 148.623 25.0653 148.985C25.008 149.347 24.8754 149.694 24.6758 150.004C23.7589 151.354 21.5778 151.731 19.6607 152.069C18.8527 152.164 18.0596 152.354 17.299 152.635C16.346 153.227 15.5738 154.056 15.0631 155.036C14.5524 156.016 14.3219 157.111 14.3955 158.208C14.575 160.465 15.1432 162.677 16.0765 164.751L16.1876 165.035C16.9301 166.634 17.2683 168.383 17.174 170.135C16.7633 172.296 15.5218 174.226 13.7009 175.531C10.8081 177.609 7.59036 179.221 4.1708 180.308C4.06531 180.305 3.9614 180.282 3.86517 180.24ZM15.5902 145.161C13.4536 145.21 11.348 145.668 9.39429 146.51C6.96314 147.495 2.726 149.748 1.6563 153.755C1.03115 156.103 1.51738 158.801 3.18445 162.269C3.53176 162.984 3.89295 163.699 4.26804 164.4C5.47284 166.455 6.40634 168.649 7.0465 170.931C7.62364 173.285 7.33875 175.761 6.24074 177.933C8.60999 177.073 10.8305 175.867 12.8257 174.358C14.3222 173.261 15.3587 171.674 15.743 169.892C15.8077 168.353 15.4933 166.822 14.8262 165.426L14.715 165.129C13.7174 162.915 13.1205 160.551 12.9507 158.14C12.8745 156.8 13.1741 155.465 13.8175 154.277C14.4609 153.089 15.4241 152.092 16.6044 151.394C17.4939 151.04 18.4284 150.804 19.3828 150.693C20.9388 150.423 22.8837 150.072 23.4671 149.208C23.5708 149.055 23.6371 148.88 23.6612 148.698C23.6853 148.515 23.6664 148.33 23.6061 148.156C23.1198 146.024 18.0492 145.255 15.7569 145.215H15.6041L15.5902 145.161Z" fill="#15371B"/>
<path d="M18.48 145.39C17.6603 146.617 17.2929 148.077 17.4381 149.532C17.4616 150.498 17.7755 151.436 18.3411 152.231C18.7156 152.701 19.1986 153.079 19.7512 153.334C20.3039 153.59 20.9106 153.716 21.5224 153.701C22.0677 153.725 22.601 153.541 23.0089 153.189C23.3182 152.865 23.5255 152.463 23.6063 152.028C24.4398 148.979 22.6755 139.683 18.48 145.39Z" fill="#15371B"/>
<path d="M21.4245 154.336C20.7273 154.341 20.0377 154.194 19.4074 153.904C18.7771 153.614 18.2224 153.19 17.7848 152.663C17.1312 151.755 16.7687 150.68 16.7429 149.573C16.5848 147.962 17.0017 146.347 17.9237 144.999C19.5908 142.705 20.98 142.705 21.8274 143.097C24.1891 144.163 24.9254 149.843 24.2864 152.163C24.1675 152.715 23.8934 153.224 23.4945 153.634C22.9603 154.106 22.2577 154.358 21.5357 154.336H21.4245ZM20.9383 144.257C20.2715 144.257 19.5491 145.174 19.0351 145.782C18.3095 146.878 17.9864 148.181 18.1182 149.478C18.1292 150.319 18.3897 151.139 18.8684 151.84C19.1793 152.221 19.5802 152.524 20.0371 152.724C20.4941 152.924 20.9938 153.014 21.494 152.986C21.8629 152.998 22.2251 152.889 22.522 152.676C22.7272 152.425 22.8655 152.128 22.9249 151.813C23.4667 149.843 22.7304 145.067 21.2301 144.311C21.1377 144.274 21.0384 144.255 20.9383 144.257Z" fill="#15371B"/>
<path d="M37.7204 166.236C37.1125 166.81 36.361 167.22 35.5399 167.426C34.7189 167.632 33.8568 167.626 33.0387 167.409C31.1463 167.056 29.3746 166.249 27.8847 165.062C24.9602 162.828 22.7349 159.847 21.4588 156.453C20.1826 153.059 19.9063 149.387 20.6607 145.849C22.3 138.685 30.1075 131.885 37.9288 135.055C39.2487 135.6 40.43 136.419 41.39 137.453C42.3499 138.488 43.0652 139.714 43.4857 141.046C44.0365 140.895 44.6208 140.904 45.1663 141.072C45.7119 141.24 46.195 141.559 46.5559 141.99C48.5147 144.082 48.3063 146.213 47.0699 148.561C45.0417 152.406 42.6105 156.049 40.7628 159.975C39.6653 162.282 39.1513 164.778 37.7204 166.236Z" fill="#629F89"/>
<path d="M34.3728 168.192C33.9072 168.186 33.4427 168.146 32.9835 168.07C30.9752 167.705 29.0934 166.856 27.51 165.601C24.4677 163.298 22.1527 160.212 20.8288 156.693C19.5049 153.175 19.2254 149.366 20.0221 145.701C20.5644 143.427 21.5946 141.291 23.0453 139.431C24.496 137.571 26.3346 136.03 28.4408 134.907C29.9314 134.112 31.5877 133.654 33.286 133.568C34.9842 133.481 36.6807 133.768 38.2487 134.408C39.5515 134.95 40.7271 135.744 41.7039 136.741C42.6807 137.739 43.4383 138.919 43.9307 140.209C44.518 140.176 45.1054 140.274 45.6474 140.496C46.1895 140.718 46.6716 141.059 47.0564 141.491C49.6265 144.257 48.6401 146.996 47.6816 148.831C46.8341 150.423 45.9172 151.988 45.0281 153.512C43.7639 155.685 42.4581 157.924 41.3745 160.258C41.0272 161.001 40.7354 161.77 40.4576 162.512C40.0164 164.042 39.2602 165.469 38.2348 166.708C37.7344 167.204 37.1319 167.593 36.4665 167.849C35.8011 168.105 35.0877 168.222 34.3728 168.192ZM33.8865 134.934C32.1905 134.953 30.5235 135.364 29.0243 136.135C27.1021 137.161 25.4236 138.568 24.0977 140.265C22.7718 141.961 21.8281 143.91 21.3279 145.984C20.6116 149.398 20.8813 152.937 22.1072 156.211C23.333 159.485 25.4673 162.366 28.2741 164.535C29.6781 165.649 31.3435 166.409 33.1225 166.748C35.5675 167.112 36.6233 166.37 37.1929 165.777C38.0767 164.667 38.7323 163.403 39.1239 162.053C39.4157 161.284 39.7213 160.488 40.0825 159.705C41.1939 157.358 42.5136 155.091 43.7917 152.959C44.6808 151.448 45.5838 149.883 46.4174 148.318C47.6816 145.916 47.5565 144.176 46.0006 142.503C45.7323 142.174 45.3718 141.928 44.9626 141.794C44.5534 141.66 44.1129 141.644 43.6945 141.747C43.5158 141.815 43.3175 141.815 43.1388 141.747C42.9698 141.656 42.8413 141.507 42.7776 141.329C42.4003 140.074 41.7411 138.916 40.8475 137.939C39.9538 136.961 38.848 136.188 37.6097 135.676C36.4316 135.191 35.166 134.939 33.8865 134.934Z" fill="#15371B"/>
<path d="M44.5557 149.883C44.5557 149.883 49.168 154.12 48.7234 155.28C48.2788 156.44 45.7505 156.319 45.7505 156.319" fill="#629F89"/>
<path d="M46.07 157.047H45.7088C45.6176 157.042 45.5282 157.02 45.446 156.981C45.3637 156.942 45.2901 156.888 45.2295 156.822C45.1688 156.755 45.1223 156.678 45.0925 156.594C45.0627 156.51 45.0503 156.421 45.0559 156.332C45.0701 156.155 45.1548 155.989 45.2922 155.871C45.4295 155.753 45.6088 155.691 45.7922 155.698C46.6535 155.698 47.8899 155.577 48.0705 155.105C48.2511 154.632 46.2228 152.406 44.0834 150.382C43.9553 150.254 43.8836 150.082 43.8836 149.903C43.8836 149.725 43.9553 149.553 44.0834 149.424C44.148 149.361 44.2248 149.311 44.3095 149.277C44.3941 149.242 44.4849 149.225 44.5766 149.225C44.6683 149.225 44.7591 149.242 44.8437 149.277C44.9284 149.311 45.0052 149.361 45.0698 149.424C47.3342 151.502 49.9182 154.255 49.4042 155.604C48.8902 156.953 46.9036 157.047 46.07 157.047Z" fill="#15371B"/>
<path d="M45.7637 176.975C40.3041 177.11 31.3158 171.322 31.2602 171.12C30.4533 167.649 29.8274 164.141 29.3848 160.609C30.6459 160.204 31.7692 159.472 32.6334 158.493C33.4976 157.513 34.07 156.323 34.2887 155.051C35.4557 150.247 40.0957 149.735 42.249 143.474C44.8329 144.702 45.0274 148.48 45.6248 150.855C46.4028 154.201 47.014 157.601 47.7086 160.92C48.0976 163.051 42.4713 164.374 41.3321 163.969C42.4018 167.112 42.4018 167.112 45.7637 176.975Z" fill="#629F89"/>
<path d="M45.5976 177.65C40.3742 177.65 30.858 172.253 30.594 171.295C29.7808 167.793 29.1502 164.254 28.7047 160.69C28.6834 160.523 28.7272 160.355 28.8274 160.217C28.9276 160.08 29.0771 159.984 29.2465 159.948C29.3715 159.948 32.5667 159.139 33.6086 154.835C34.225 152.713 35.501 150.828 37.2623 149.438C39.2438 147.77 40.7387 145.625 41.5967 143.218C41.6228 143.125 41.6718 143.04 41.7396 142.969C41.8074 142.898 41.8918 142.845 41.9857 142.813C42.075 142.773 42.1721 142.753 42.2705 142.753C42.3688 142.753 42.4659 142.773 42.5552 142.813C45.0142 143.987 45.5838 146.969 46.0422 149.37C46.1255 149.829 46.2089 150.261 46.3062 150.72C47.0702 154.039 47.6954 157.466 48.39 160.812C48.4456 161.218 48.3841 161.631 48.2124 162.005C48.0407 162.378 47.7656 162.699 47.4175 162.93C45.9122 163.965 44.1445 164.58 42.3052 164.711C43.1109 167.086 43.4304 168.043 46.4729 176.854C46.5082 176.954 46.519 177.061 46.5046 177.167C46.4901 177.272 46.4507 177.373 46.3895 177.461C46.3216 177.542 46.2374 177.61 46.1418 177.658C46.0462 177.707 45.9414 177.736 45.8338 177.744L45.5976 177.65ZM31.886 170.755C33.0529 171.632 40.0546 175.815 44.7919 176.26C41.7495 167.315 41.7078 167.22 40.6242 164.117C40.5838 163.998 40.5793 163.87 40.6113 163.748C40.6433 163.626 40.7104 163.515 40.8048 163.429C40.8987 163.341 41.0163 163.28 41.144 163.254C41.2718 163.228 41.4046 163.237 41.5272 163.281C43.3138 163.311 45.0646 162.792 46.5284 161.797C46.9035 161.486 47.0702 161.203 47.0147 160.947C46.4034 157.574 45.7088 154.201 44.9447 150.909C44.8475 150.504 44.7641 150.059 44.6808 149.559C44.3334 147.738 43.9028 145.512 42.5969 144.392C41.6267 146.667 40.1348 148.698 38.2347 150.328C36.6659 151.553 35.5216 153.215 34.9562 155.091C34.7239 156.388 34.163 157.609 33.3238 158.643C32.4847 159.677 31.3938 160.492 30.1495 161.014C30.3856 162.741 31.108 167.868 31.886 170.755Z" fill="#15371B"/>
<path d="M47.0277 158.397C46.7473 158.689 46.4051 158.92 46.0245 159.073C45.6438 159.225 45.2338 159.296 44.8223 159.281C44.4108 159.265 44.0076 159.164 43.6402 158.984C43.2728 158.803 42.9498 158.547 42.6934 158.235" fill="#629F89"/>
<path d="M44.8193 160.002H44.6942C44.1983 159.965 43.7163 159.825 43.2803 159.592C42.8443 159.36 42.4644 159.039 42.1659 158.653C42.0841 158.594 42.0168 158.518 41.9686 158.431C41.9203 158.344 41.8924 158.247 41.8869 158.149C41.8813 158.05 41.8981 157.951 41.9362 157.859C41.9743 157.768 42.0327 157.685 42.1072 157.618C42.1818 157.55 42.2707 157.5 42.3677 157.469C42.4646 157.439 42.5673 157.43 42.6683 157.442C42.7693 157.455 42.8663 157.489 42.9523 157.542C43.0384 157.595 43.1113 157.666 43.1661 157.749C43.3445 157.984 43.5711 158.182 43.8317 158.328C44.0923 158.474 44.3812 158.566 44.6804 158.599C45.3552 158.573 45.9972 158.309 46.4864 157.857C46.6162 157.733 46.7908 157.664 46.9726 157.664C47.1544 157.664 47.329 157.733 47.4588 157.857C47.5239 157.92 47.5756 157.994 47.6109 158.076C47.6461 158.159 47.6643 158.247 47.6643 158.336C47.6643 158.425 47.6461 158.513 47.6109 158.595C47.5756 158.677 47.5239 158.752 47.4588 158.815C46.7487 159.498 45.8149 159.918 44.8193 160.002Z" fill="#15371B"/>
<path d="M41.3322 163.915C40.5035 164.052 39.6545 164.024 38.8375 163.832C38.0205 163.639 37.2526 163.286 36.5811 162.795C36.5811 162.795 37.9703 167.854 42.8187 168.313L41.3322 163.915Z" fill="#15371B"/>
<path d="M42.8184 168.988C37.581 168.489 36.039 163.2 35.9834 162.97C35.943 162.829 35.951 162.679 36.0061 162.543C36.0612 162.407 36.1606 162.291 36.289 162.215C36.4188 162.14 36.5696 162.108 36.7194 162.123C36.8693 162.137 37.0105 162.198 37.1226 162.296C37.7175 162.715 38.3922 163.016 39.1076 163.18C39.823 163.345 40.5649 163.37 41.2902 163.254C41.4533 163.226 41.6212 163.255 41.7639 163.337C41.9065 163.418 42.0144 163.547 42.0682 163.699L43.5547 168.111C43.5946 168.217 43.6054 168.331 43.5859 168.442C43.5664 168.553 43.5173 168.658 43.4435 168.745C43.3667 168.831 43.27 168.898 43.1612 168.94C43.0525 168.982 42.935 168.999 42.8184 168.988ZM38.0256 164.347C38.8111 165.814 40.1578 166.923 41.7765 167.436L40.8318 164.643C39.8856 164.71 38.9348 164.609 38.0256 164.347Z" fill="#15371B"/>
<path d="M43.2185 149.741C43.4912 149.698 43.6229 149.121 43.5126 148.451C43.4023 147.782 43.0918 147.273 42.819 147.316C42.5463 147.358 42.4146 147.935 42.5249 148.605C42.6352 149.275 42.9457 149.783 43.2185 149.741Z" fill="#15371B"/>
<path d="M37.9847 153.162C37.6837 152.352 37.16 151.638 36.4705 151.097C36.0057 150.611 35.4669 150.197 34.8729 149.87C34.5728 149.705 34.2389 149.608 33.8952 149.585C33.5516 149.561 33.207 149.613 32.8863 149.735C32.6153 149.871 32.3774 150.062 32.1882 150.295C31.9989 150.527 31.8628 150.796 31.7888 151.084C31.6497 151.661 31.6497 152.261 31.7888 152.838C32.0302 154.105 32.6122 155.288 33.4758 156.267C34.3395 157.245 35.454 157.985 36.7067 158.41L36.4705 158.248" fill="#629F89"/>
<path d="M36.6508 159.098C36.5867 159.112 36.5203 159.112 36.4563 159.098C35.0915 158.624 33.8777 157.811 32.9349 156.742C31.992 155.672 31.3527 154.383 31.08 153C30.9173 152.33 30.9173 151.632 31.08 150.963C31.1782 150.582 31.3609 150.226 31.6152 149.921C31.8696 149.616 32.1895 149.368 32.5526 149.195C32.9654 149.025 33.4128 148.949 33.8606 148.972C34.3084 148.996 34.7448 149.118 35.1365 149.33C35.7958 149.69 36.3953 150.145 36.9147 150.679C37.6935 151.31 38.2796 152.136 38.6096 153.067C38.6326 153.153 38.6378 153.243 38.6251 153.331C38.6124 153.419 38.5819 153.503 38.5355 153.58C38.489 153.656 38.4274 153.723 38.3543 153.776C38.2812 153.83 38.198 153.868 38.1095 153.89C37.9291 153.931 37.7393 153.902 37.5809 153.809C37.4225 153.715 37.308 153.565 37.262 153.391C36.9787 152.694 36.4968 152.091 35.8728 151.651C35.4684 151.214 35.0004 150.836 34.4836 150.531C34.2755 150.413 34.0431 150.34 33.8029 150.319C33.5628 150.298 33.3209 150.329 33.0944 150.409C32.9164 150.507 32.7607 150.639 32.6365 150.796C32.5124 150.954 32.4224 151.134 32.372 151.327C32.266 151.803 32.266 152.295 32.372 152.77C32.583 153.827 33.0512 154.819 33.7376 155.664C34.4239 156.509 35.3085 157.182 36.3174 157.628C36.4752 157.62 36.6314 157.662 36.7619 157.749L36.9286 157.857C37.069 157.952 37.1717 158.091 37.2197 158.25C37.2677 158.41 37.2582 158.58 37.1926 158.734C37.1404 158.833 37.0636 158.919 36.969 158.982C36.8744 159.046 36.7651 159.086 36.6508 159.098Z" fill="#15371B"/>
<path d="M48.7227 172.442C48.7227 172.442 30.0932 165.129 24.2446 171.511C18.3959 177.893 14.2838 202.61 16.7705 234.654C37.47 241.076 62.2677 227.314 62.2677 227.314C62.2677 227.314 57.7388 176.381 48.7227 172.442Z" fill="#194349"/>
<path d="M87.7461 193.368C87.7461 193.368 93.5253 180.996 94.6089 182.224C95.6925 183.451 93.7059 189.199 93.7059 189.199C93.7059 189.199 99.4573 181.522 100.721 182.129C101.986 182.736 101.083 188.875 98.1931 193.368C95.3035 197.861 91.7332 203.19 91.7332 203.19L87.7461 193.368Z" fill="#629F89"/>
<path d="M91.7896 203.865H91.7062C91.5807 203.853 91.461 203.808 91.3604 203.734C91.2598 203.66 91.1824 203.561 91.1366 203.447L87.1634 193.624C87.1258 193.544 87.1064 193.456 87.1064 193.368C87.1064 193.28 87.1258 193.192 87.1634 193.112C89.5807 187.917 92.7203 181.697 94.318 181.482C94.4768 181.459 94.6389 181.476 94.7894 181.53C94.9399 181.584 95.0739 181.674 95.1793 181.792C95.8461 182.561 95.7072 184.355 95.346 186.042C99.6248 180.847 100.681 181.36 101.07 181.549C101.267 181.657 101.438 181.804 101.572 181.981C101.706 182.157 101.8 182.36 101.848 182.574C102.459 184.625 101.292 189.833 98.8329 193.732C95.985 198.266 92.3869 203.528 92.3453 203.582C92.2805 203.666 92.197 203.736 92.1007 203.785C92.0045 203.834 91.8982 203.861 91.7896 203.865ZM88.5666 193.395L91.9424 201.733C93.1371 199.952 95.596 196.336 97.666 193.017C100.292 188.848 100.986 183.789 100.444 182.817C99.4581 183.249 96.5407 186.568 94.2624 189.563C94.1649 189.692 94.0234 189.784 93.8631 189.821C93.7027 189.858 93.5341 189.838 93.3872 189.766C93.2414 189.691 93.1269 189.569 93.0635 189.422C93.0001 189.274 92.9918 189.109 93.0399 188.956C93.7705 187.06 94.1696 185.058 94.2207 183.033C91.9913 186.308 90.0799 189.777 88.511 193.395H88.5666Z" fill="#15371B"/>
<path d="M40.8183 182.102C40.8183 182.102 53.238 217.735 66.1855 216.682C79.1331 215.63 94.5674 202.596 94.5674 202.596L87.1073 191.654C87.1073 191.654 68.1721 203.19 64.3934 198.751C59.5006 192.204 55.5468 185.042 52.6406 177.461C50.1122 170.755 38.9984 170.701 40.8183 182.102Z" fill="#194349"/>
<path d="M67.9912 188.079C68.8615 186.288 70.0145 184.64 71.4087 183.195C73.2008 181.63 78.6049 178.594 77.8825 181.333C77.1601 184.072 72.9646 186.73 72.9646 186.73C72.9646 186.73 72.0339 188.47 70.3668 190.926" fill="#629F89"/>
<path d="M70.3676 191.56C70.2325 191.559 70.1011 191.517 69.9925 191.439C69.9156 191.391 69.8494 191.329 69.7978 191.256C69.7462 191.182 69.7103 191.1 69.6922 191.013C69.674 190.926 69.674 190.837 69.6922 190.75C69.7104 190.663 69.7464 190.581 69.798 190.508C71.4095 188.12 72.3403 186.393 72.3542 186.379C72.4098 186.276 72.4909 186.188 72.5903 186.123C72.5903 186.123 76.5635 183.613 77.2026 181.158C77.2302 181.051 77.2302 180.94 77.2026 180.834C76.6191 180.658 73.4239 182.304 71.8262 183.694C70.5034 185.085 69.4071 186.664 68.5755 188.376C68.5406 188.462 68.4878 188.54 68.4204 188.606C68.353 188.672 68.2724 188.723 68.1836 188.757C68.0949 188.791 67.9999 188.807 67.9045 188.803C67.8092 188.8 67.7156 188.778 67.6295 188.738C67.5434 188.698 67.4667 188.641 67.4042 188.571C67.3417 188.501 67.2947 188.42 67.2662 188.331C67.2376 188.243 67.2281 188.15 67.2383 188.058C67.2484 187.965 67.278 187.876 67.3252 187.796C68.2458 185.919 69.47 184.197 70.951 182.696C71.9791 181.792 76.369 178.77 78.0361 179.754C78.3556 179.943 78.8418 180.416 78.5501 181.495C77.8555 184.193 74.2991 186.635 73.4933 187.162C73.2294 187.634 72.3542 189.199 70.951 191.209C70.8923 191.311 70.808 191.396 70.7059 191.458C70.6039 191.519 70.4875 191.554 70.3676 191.56Z" fill="#15371B"/>
<path d="M66.4225 216.52C63.6883 216.525 61.0058 215.797 58.6706 214.416C50.5714 209.693 39.402 185.354 38.9297 184.315C38.8855 184.233 38.8589 184.144 38.8517 184.052C38.8444 183.96 38.8565 183.868 38.8874 183.781C38.9182 183.694 38.9671 183.614 39.031 183.546C39.0949 183.478 39.1724 183.423 39.2589 183.385C39.3453 183.347 39.4389 183.327 39.5337 183.326C39.6285 183.324 39.7226 183.342 39.8102 183.377C39.8978 183.412 39.977 183.465 40.043 183.531C40.109 183.597 40.1604 183.675 40.1939 183.762C40.3051 184.018 51.6689 208.749 59.393 213.255C67.1171 217.762 76.3138 213.377 84.9548 207.858C85.03 207.808 85.1148 207.773 85.2042 207.756C85.2937 207.738 85.3858 207.738 85.4752 207.756C85.5647 207.773 85.6495 207.808 85.7248 207.858C85.8 207.908 85.8642 207.973 85.9133 208.047C86.0138 208.196 86.0498 208.377 86.0134 208.552C85.977 208.726 85.8711 208.879 85.7188 208.978C79.634 212.918 72.8824 216.52 66.4225 216.52Z" fill="#15371B"/>
<path d="M108.46 326.804V337.193C108.46 337.193 132.952 335.115 132.396 334.049C131.841 332.984 119.56 328.464 119.56 328.464L108.46 326.804Z" fill="#194349"/>
<path d="M108.46 337.8C108.287 337.796 108.12 337.734 107.988 337.625C107.918 337.56 107.863 337.483 107.825 337.397C107.787 337.311 107.766 337.219 107.766 337.126V326.804C107.766 326.708 107.788 326.612 107.828 326.524C107.869 326.436 107.928 326.357 108.002 326.292C108.079 326.231 108.168 326.187 108.264 326.161C108.359 326.136 108.459 326.13 108.557 326.143L119.671 327.735C119.717 327.723 119.765 327.723 119.81 327.735C125.548 329.84 132.48 332.579 133.036 333.645C133.087 333.757 133.114 333.879 133.114 334.002C133.114 334.126 133.087 334.247 133.036 334.36C132.813 334.738 132.23 335.709 108.543 337.76L108.46 337.8ZM109.155 327.587V336.384C118.268 335.601 128.09 334.535 131.091 333.847C129.215 332.862 124.144 330.798 119.379 329.058L109.155 327.587Z" fill="#15371B"/>
<path d="M108.391 317.711V326.804L119.491 328.396L119.893 317.711H108.391Z" fill="#629F89"/>
<path d="M119.49 329.098H119.379L108.265 327.492C108.1 327.473 107.947 327.394 107.837 327.272C107.727 327.15 107.667 326.993 107.668 326.831V317.738C107.668 317.559 107.741 317.387 107.871 317.261C108.002 317.134 108.178 317.063 108.363 317.063H119.865C119.959 317.063 120.052 317.081 120.138 317.117C120.224 317.152 120.302 317.205 120.367 317.27C120.432 317.336 120.482 317.413 120.515 317.498C120.549 317.583 120.564 317.674 120.56 317.765L120.157 328.45C120.152 328.545 120.127 328.639 120.084 328.724C120.041 328.81 119.981 328.887 119.907 328.95C119.787 329.039 119.641 329.09 119.49 329.098ZM109.085 326.251L118.81 327.6L119.157 318.358H109.071L109.085 326.251Z" fill="#15371B"/>
<path d="M141.162 318.021L142.399 330.15L153.568 329.759L152.984 318.021H141.162Z" fill="#629F89"/>
<path d="M142.399 330.825C142.227 330.826 142.06 330.764 141.931 330.652C141.803 330.54 141.722 330.385 141.705 330.218L140.468 318.075C140.46 317.98 140.472 317.884 140.503 317.794C140.534 317.703 140.584 317.62 140.649 317.549C140.715 317.481 140.795 317.427 140.883 317.39C140.971 317.352 141.067 317.333 141.163 317.333H152.985C153.165 317.333 153.337 317.4 153.467 317.521C153.596 317.642 153.673 317.806 153.68 317.981L154.263 329.705C154.268 329.883 154.203 330.057 154.083 330.191C154.021 330.258 153.947 330.311 153.863 330.348C153.779 330.385 153.689 330.405 153.597 330.407L142.483 330.812L142.399 330.825ZM141.927 318.682L143.025 329.476L152.916 329.098L152.388 318.696L141.927 318.682Z" fill="#15371B"/>
<path d="M151.735 220.622L154.083 320.045H139.51L133.133 251.154L121.047 321.165L107.071 320.422L109.947 229.351L151.735 220.622Z" fill="#15371B"/>
<path d="M121.046 321.839L107.071 321.097C106.981 321.094 106.893 321.073 106.812 321.037C106.731 321 106.658 320.949 106.597 320.885C106.536 320.821 106.489 320.746 106.459 320.664C106.428 320.583 106.414 320.496 106.418 320.409L109.293 229.324C109.299 229.175 109.355 229.032 109.453 228.918C109.551 228.803 109.685 228.723 109.835 228.69L151.526 219.961C151.627 219.942 151.732 219.945 151.832 219.968C151.933 219.991 152.027 220.035 152.109 220.096C152.192 220.155 152.258 220.232 152.304 220.321C152.35 220.411 152.374 220.509 152.373 220.608L154.721 320.031C154.72 320.211 154.651 320.384 154.526 320.517C154.391 320.642 154.213 320.714 154.026 320.719H139.523C139.348 320.72 139.179 320.656 139.05 320.541C138.922 320.426 138.842 320.268 138.828 320.099L132.924 256.443L121.727 321.286C121.7 321.442 121.617 321.584 121.492 321.685C121.367 321.787 121.209 321.841 121.046 321.839ZM107.779 319.788L120.463 320.463L132.452 251.046C132.478 250.889 132.561 250.746 132.685 250.642C132.81 250.538 132.968 250.481 133.132 250.48C133.302 250.489 133.462 250.556 133.584 250.67C133.707 250.784 133.783 250.937 133.799 251.1L140.12 319.37H153.346L151.026 221.458L110.599 229.904L107.779 319.788Z" fill="#15371B"/>
<path d="M175.282 185.974C177.746 184.275 180.483 182.985 183.382 182.156C186.049 181.4 189.063 178.729 189.397 175.869C189.418 175.411 189.352 174.954 189.202 174.52C188.762 173.11 188.107 171.773 187.257 170.553C187.176 170.42 187.061 170.308 186.924 170.229C186.632 170.108 186.313 170.31 186.077 170.485L181.77 173.737C181.799 172.834 181.739 171.93 181.589 171.039C181.575 170.723 181.447 170.422 181.228 170.189C181.057 170.074 180.853 170.012 180.645 170.012C180.436 170.012 180.233 170.074 180.061 170.189C179.718 170.414 179.429 170.708 179.214 171.052C177.575 173.305 176.435 176.233 174.699 178.324C174.352 178.729 170.906 181.333 171.142 181.576L175.282 185.974Z" fill="#629F89"/>
<path d="M175.282 186.649C175.184 186.648 175.088 186.627 175 186.587C174.911 186.548 174.832 186.491 174.768 186.419L170.6 181.913C170.484 181.767 170.425 181.585 170.433 181.4C170.433 180.928 170.836 180.564 173.073 178.702C173.517 178.338 174.059 177.893 174.17 177.771C175.13 176.557 175.959 175.25 176.643 173.872C177.239 172.726 177.907 171.618 178.644 170.553C178.915 170.129 179.281 169.77 179.713 169.5C180.013 169.318 180.364 169.23 180.718 169.249C181.071 169.269 181.409 169.394 181.686 169.608C182.024 169.95 182.234 170.392 182.284 170.863C182.353 171.335 182.422 171.835 182.45 172.32L185.645 169.905C185.848 169.716 186.1 169.583 186.374 169.521C186.648 169.459 186.934 169.471 187.201 169.554C187.461 169.681 187.679 169.878 187.827 170.121C188.728 171.391 189.413 172.795 189.855 174.277C190.046 174.804 190.127 175.364 190.091 175.923C189.716 179.12 186.423 181.981 183.576 182.79C180.763 183.605 178.103 184.853 175.699 186.487C175.583 186.586 175.436 186.643 175.282 186.649ZM172.017 181.414L175.393 185.07C177.789 183.504 180.417 182.303 183.187 181.508C185.618 180.82 188.41 178.351 188.743 175.788C188.763 175.408 188.706 175.027 188.577 174.668C188.162 173.322 187.534 172.048 186.715 170.89L186.548 171.012L182.256 174.25C182.146 174.318 182.018 174.355 181.888 174.355C181.757 174.355 181.629 174.318 181.519 174.25C181.4 174.193 181.3 174.105 181.232 173.995C181.163 173.885 181.128 173.758 181.13 173.629C181.158 172.767 181.103 171.904 180.964 171.052C180.949 170.89 180.897 170.733 180.811 170.593C180.756 170.569 180.697 170.557 180.637 170.557C180.577 170.557 180.518 170.569 180.464 170.593C180.212 170.776 179.999 171.005 179.838 171.268C179.133 172.283 178.497 173.342 177.935 174.439C177.195 175.902 176.306 177.289 175.282 178.581C174.883 178.965 174.461 179.325 174.018 179.66C173.406 180.2 172.476 180.969 172.017 181.414Z" fill="#15371B"/>
<path d="M135.994 161.297C135.994 161.297 153.554 185.435 155.888 185.448C158.222 185.462 173.67 177.137 173.67 177.137L176.448 186.959C176.448 186.959 161.25 201.666 153.568 199.574C145.885 197.483 121.463 182.79 121.463 182.79L135.994 161.297Z" fill="#194349"/>
<path d="M122.825 153.701C121.644 153.85 120.449 153.85 119.06 153.958C117.671 154.066 116.073 153.877 115.823 152.609C115.573 151.34 116.754 150.477 116.282 149.505C116.135 149.245 115.936 149.016 115.698 148.831C113.478 146.759 112.144 143.95 111.961 140.965C111.826 138.012 112.849 135.119 114.823 132.87C114.489 133.045 114.059 132.762 113.948 132.411C113.882 132.041 113.961 131.661 114.17 131.345C114.924 130.173 116.009 129.236 117.296 128.647C121.336 126.653 125.904 125.895 130.396 126.474C133.841 126.866 138.231 128.755 138.509 132.694C138.588 133.397 138.414 134.106 138.017 134.698C137.619 135.291 137.022 135.732 136.328 135.946C136.328 140.209 134.661 143.407 132.424 146.861C130.932 149.227 128.855 151.193 126.381 152.582C125.284 153.18 124.075 153.561 122.825 153.701Z" fill="#629F89"/>
<path d="M118.449 154.673C116.615 154.673 115.392 153.985 115.142 152.784C115.061 152.178 115.152 151.562 115.406 151.003C115.615 150.477 115.726 150.126 115.615 149.883C115.51 149.72 115.379 149.574 115.226 149.451C112.851 147.262 111.425 144.275 111.239 141.1C111.089 138.294 111.932 135.523 113.628 133.247C113.448 133.075 113.314 132.862 113.239 132.627C113.121 132.09 113.22 131.529 113.517 131.062C114.341 129.782 115.528 128.761 116.935 128.121C121.101 126.071 125.806 125.286 130.438 125.867C134.605 126.34 138.884 128.647 139.162 132.721C139.232 133.493 139.062 134.267 138.673 134.943C138.284 135.619 137.694 136.166 136.981 136.513C136.87 140.897 134.939 144.244 132.966 147.306C131.415 149.766 129.257 151.811 126.687 153.256C125.506 153.894 124.208 154.302 122.867 154.457C122.158 154.538 121.477 154.578 120.699 154.605C120.185 154.605 119.644 154.605 119.074 154.713L118.449 154.673ZM114.823 132.182C114.927 132.181 115.031 132.204 115.125 132.248C115.219 132.293 115.301 132.358 115.365 132.438C115.471 132.558 115.53 132.711 115.53 132.87C115.53 133.028 115.471 133.181 115.365 133.301C113.483 135.435 112.519 138.19 112.671 140.996C112.824 143.802 114.082 146.443 116.184 148.372C116.484 148.617 116.734 148.915 116.921 149.249C117.052 149.602 117.106 149.977 117.08 150.351C117.054 150.725 116.947 151.089 116.768 151.421C116.598 151.767 116.513 152.145 116.518 152.528C116.671 153.229 117.907 153.391 119.018 153.297L120.685 153.202C121.408 153.202 122.075 153.202 122.741 153.04C123.91 152.919 125.04 152.565 126.062 152.001C128.432 150.677 130.42 148.793 131.841 146.524C134.272 142.759 135.675 139.778 135.647 135.973C135.644 135.819 135.696 135.668 135.795 135.547C135.894 135.427 136.034 135.343 136.189 135.312C136.722 135.129 137.174 134.775 137.472 134.309C137.77 133.843 137.896 133.293 137.828 132.748C137.565 128.984 132.994 127.459 130.327 127.163C125.978 126.598 121.556 127.328 117.643 129.254C116.496 129.775 115.53 130.609 114.865 131.655C114.684 131.979 114.684 132.141 114.712 132.209L114.823 132.182Z" fill="#15371B"/>
<path d="M138.564 141.788C138.564 141.788 142.482 146.146 141.954 147.185C141.426 148.224 139.106 147.886 139.106 147.886" fill="#629F89"/>
<path d="M139.982 148.669C139.652 148.668 139.322 148.646 138.995 148.601C138.814 148.568 138.653 148.468 138.547 148.322C138.441 148.176 138.397 147.996 138.426 147.819C138.456 147.644 138.557 147.488 138.705 147.385C138.853 147.281 139.037 147.238 139.217 147.266C139.954 147.374 141.135 147.333 141.329 146.942C140.527 145.196 139.412 143.602 138.037 142.233C137.915 142.097 137.854 141.92 137.867 141.74C137.88 141.561 137.966 141.393 138.106 141.275C138.246 141.157 138.429 141.098 138.614 141.111C138.799 141.123 138.971 141.207 139.092 141.343C141.01 143.488 143.177 146.294 142.579 147.522C142.294 147.923 141.901 148.242 141.444 148.444C140.986 148.646 140.481 148.724 139.982 148.669Z" fill="#15371B"/>
<path d="M136.967 135.568C139.259 136.917 139.162 140.493 139.467 142.746C139.903 145.912 140.254 149.091 140.523 152.285C140.704 154.308 135.383 154.983 134.369 154.565L136.328 162.39L124.547 159.624L124.061 153.013C125.288 152.749 126.416 152.161 127.321 151.313C128.225 150.465 128.871 149.392 129.187 148.21C130.687 143.852 129.187 134.988 129.187 134.988C129.187 134.988 134.744 134.232 136.967 135.568Z" fill="#629F89"/>
<path d="M136.328 163.065H136.245L124.45 160.299C124.307 160.265 124.179 160.188 124.084 160.079C123.989 159.97 123.933 159.834 123.922 159.692L123.45 153.067C123.438 152.897 123.492 152.728 123.603 152.595C123.714 152.463 123.873 152.376 124.047 152.352C125.145 152.106 126.152 151.571 126.956 150.804C127.76 150.037 128.33 149.07 128.604 148.008C129.993 143.852 128.507 135.204 128.493 135.109C128.464 134.929 128.509 134.745 128.618 134.597C128.734 134.452 128.903 134.356 129.09 134.327C129.687 134.246 135.022 133.585 137.425 135.015C139.829 136.445 139.898 139.184 140.107 141.464C140.107 141.896 140.19 142.301 140.246 142.678C140.662 145.836 141.024 149.06 141.301 152.244C141.322 152.633 141.229 153.02 141.036 153.361C140.842 153.702 140.554 153.983 140.204 154.174C138.73 154.984 137.063 155.403 135.369 155.388L137.092 162.242C137.117 162.342 137.119 162.446 137.097 162.547C137.074 162.647 137.028 162.741 136.963 162.822C136.897 162.903 136.813 162.968 136.718 163.012C136.622 163.057 136.517 163.079 136.411 163.078L136.328 163.065ZM125.214 159.085L135.397 161.473L133.702 154.727C133.673 154.604 133.679 154.476 133.721 154.357C133.763 154.238 133.838 154.132 133.938 154.052C134.04 153.971 134.164 153.92 134.294 153.906C134.425 153.892 134.557 153.914 134.675 153.971C136.296 154.149 137.933 153.828 139.356 153.054C139.704 152.825 139.87 152.582 139.857 152.366C139.579 149.195 139.218 145.998 138.787 142.854C138.787 142.463 138.704 142.031 138.662 141.586C138.467 139.602 138.231 137.133 136.62 136.189C135.23 135.325 131.771 135.433 129.924 135.622C130.271 137.835 131.16 144.675 129.854 148.467C129.514 149.657 128.876 150.748 127.996 151.64C127.116 152.532 126.022 153.199 124.811 153.58L125.214 159.085Z" fill="#15371B"/>
<path d="M140.106 149.937C139.82 150.185 139.483 150.369 139.116 150.477C138.75 150.586 138.363 150.615 137.984 150.564C137.605 150.512 137.241 150.382 136.919 150.18C136.597 149.979 136.324 149.712 136.119 149.397" fill="#629F89"/>
<path d="M138.217 151.286C138.084 151.3 137.949 151.3 137.815 151.286C137.351 151.213 136.908 151.044 136.518 150.79C136.127 150.537 135.797 150.204 135.55 149.816C135.497 149.743 135.459 149.661 135.438 149.574C135.418 149.488 135.415 149.398 135.431 149.31C135.446 149.222 135.48 149.138 135.529 149.063C135.578 148.988 135.642 148.922 135.717 148.871C135.871 148.772 136.058 148.734 136.24 148.767C136.422 148.8 136.583 148.9 136.689 149.047C136.83 149.277 137.019 149.477 137.244 149.632C137.469 149.788 137.725 149.896 137.995 149.951C138.602 149.989 139.201 149.806 139.676 149.438C139.82 149.328 140.003 149.277 140.185 149.297C140.367 149.318 140.534 149.407 140.649 149.546C140.764 149.684 140.818 149.861 140.8 150.038C140.782 150.214 140.692 150.377 140.551 150.49C139.874 150.979 139.06 151.257 138.217 151.286Z" fill="#15371B"/>
<path d="M132.633 144.621C132.429 143.84 132.011 143.127 131.424 142.557C131.033 142.042 130.565 141.588 130.035 141.208C129.774 141.03 129.475 140.91 129.16 140.859C128.845 140.808 128.522 140.825 128.215 140.911C127.952 141.012 127.715 141.167 127.518 141.365C127.322 141.563 127.171 141.799 127.076 142.058C126.898 142.579 126.837 143.131 126.896 143.677C127.013 144.879 127.452 146.03 128.168 147.017C128.885 148.004 129.854 148.792 130.98 149.303L130.771 149.141" fill="#629F89"/>
<path d="M130.979 150.045C130.883 150.063 130.784 150.063 130.687 150.045C129.449 149.487 128.384 148.622 127.598 147.537C126.813 146.452 126.336 145.186 126.214 143.866C126.128 143.219 126.204 142.562 126.436 141.95C126.563 141.6 126.767 141.282 127.033 141.016C127.3 140.751 127.622 140.544 127.978 140.412C128.385 140.287 128.816 140.255 129.238 140.318C129.659 140.381 130.06 140.538 130.409 140.776C130.99 141.148 131.51 141.603 131.951 142.125C132.632 142.782 133.113 143.608 133.341 144.513C133.354 144.601 133.35 144.69 133.328 144.777C133.307 144.863 133.267 144.944 133.213 145.015C133.159 145.087 133.091 145.147 133.013 145.193C132.934 145.239 132.848 145.269 132.757 145.282C132.668 145.298 132.576 145.295 132.487 145.276C132.399 145.256 132.315 145.219 132.241 145.168C132.167 145.116 132.105 145.051 132.057 144.976C132.01 144.9 131.979 144.816 131.965 144.729C131.776 144.07 131.406 143.473 130.896 143.002C130.552 142.556 130.14 142.165 129.673 141.842C129.499 141.718 129.3 141.634 129.088 141.594C128.877 141.554 128.659 141.561 128.451 141.612C128.122 141.764 127.867 142.036 127.742 142.368C127.592 142.802 127.545 143.263 127.603 143.717C127.706 144.715 128.052 145.675 128.612 146.517C129.172 147.359 129.931 148.06 130.826 148.561C130.974 148.566 131.115 148.618 131.229 148.709L131.437 148.871C131.563 148.978 131.646 149.124 131.672 149.285C131.697 149.445 131.663 149.609 131.576 149.748C131.512 149.843 131.423 149.921 131.318 149.973C131.213 150.025 131.096 150.05 130.979 150.045Z" fill="#15371B"/>
<path d="M137.489 140.56C137.737 140.513 137.837 139.971 137.712 139.349C137.587 138.728 137.284 138.262 137.036 138.309C136.787 138.356 136.687 138.898 136.812 139.52C136.938 140.142 137.24 140.607 137.489 140.56Z" fill="#15371B"/>
<path d="M122.574 161.878L123.019 158.248L137.439 157.236L139.745 162.228C134.122 163.843 128.122 163.72 122.574 161.878Z" fill="#15371B"/>
<path d="M131.882 164.023C128.642 164.023 125.424 163.512 122.352 162.512C122.199 162.465 122.068 162.368 121.982 162.238C121.895 162.107 121.859 161.951 121.879 161.797L122.338 158.167C122.357 158.012 122.431 157.867 122.548 157.759C122.664 157.651 122.816 157.585 122.977 157.574L137.397 156.562C137.538 156.552 137.679 156.584 137.8 156.654C137.922 156.724 138.019 156.828 138.078 156.953L140.37 161.945C140.408 162.03 140.427 162.122 140.427 162.215C140.427 162.308 140.408 162.399 140.37 162.485C140.292 162.657 140.147 162.793 139.967 162.863C137.353 163.666 134.624 164.058 131.882 164.023ZM123.324 161.405C128.341 162.926 133.695 163.061 138.786 161.797L137.008 157.938L123.644 158.882L123.324 161.405Z" fill="#15371B"/>
<path d="M139.745 162.228C131.188 160.016 122.769 155.482 111.961 168.381C101.153 181.279 107.932 232.522 107.932 232.522C110.546 234.568 113.627 235.977 116.916 236.629C120.206 237.282 123.609 237.16 126.839 236.273L154.429 229.527C154.429 229.527 147.72 164.293 139.745 162.228Z" fill="#194349"/>
<path d="M142.398 330.15V339.096C142.398 339.096 166.404 336.559 166.015 334.792C165.626 333.024 153.512 329.746 153.512 329.746L142.398 330.15Z" fill="#194349"/>
<path d="M142.399 339.77C142.225 339.768 142.058 339.705 141.927 339.595C141.857 339.53 141.802 339.452 141.764 339.367C141.725 339.281 141.705 339.189 141.704 339.095V330.15C141.704 329.976 141.773 329.808 141.898 329.682C142.022 329.557 142.192 329.483 142.371 329.476L153.485 329.071H153.693C158.403 330.353 166.349 332.768 166.71 334.643C166.73 334.771 166.723 334.901 166.69 335.027C166.656 335.152 166.597 335.269 166.516 335.372C165.127 337.206 147.72 339.176 142.413 339.73L142.399 339.77ZM143.093 330.811V338.34C152.929 337.274 163.348 335.641 165.238 334.737C164.168 333.753 158.528 331.796 153.485 330.433L143.093 330.811Z" fill="#15371B"/>
<path d="M129.316 266.086L163.912 260.216L159.405 235.163L124.81 241.033L129.316 266.086Z" fill="#629F89"/>
<path d="M129.299 266.751C129.135 266.751 128.976 266.696 128.849 266.595C128.723 266.494 128.636 266.354 128.604 266.198L124.103 241.143C124.074 240.969 124.114 240.791 124.214 240.644C124.323 240.495 124.488 240.394 124.672 240.361L159.264 234.492C159.355 234.476 159.447 234.478 159.537 234.498C159.626 234.517 159.711 234.554 159.786 234.605C159.861 234.657 159.924 234.722 159.973 234.797C160.022 234.873 160.055 234.957 160.07 235.045L164.571 260.1C164.591 260.186 164.591 260.275 164.572 260.361C164.553 260.447 164.515 260.528 164.46 260.599C164.41 260.672 164.344 260.734 164.267 260.78C164.191 260.827 164.105 260.857 164.015 260.869L129.41 266.738L129.299 266.751ZM125.589 241.575L129.854 265.294L163.085 259.668L158.861 236.003L125.589 241.575Z" fill="#15371B"/>
<path d="M144.496 226.842C144.496 226.842 144.732 230.889 145.885 231.807C147.038 232.724 151.109 235.18 150.817 235.976C150.525 236.772 147.664 237.325 147.664 237.325C147.664 237.325 150.192 242.182 148.15 243.639C146.108 245.097 140.662 246.581 139.62 245.11C138.578 243.639 136.244 228.312 136.244 228.312" fill="#629F89"/>
<path d="M141.454 246.392C141.177 246.413 140.898 246.413 140.621 246.392C140.299 246.36 139.988 246.259 139.712 246.095C139.435 245.932 139.2 245.711 139.023 245.447C137.939 243.936 135.925 230.957 135.536 228.366C135.508 228.187 135.555 228.005 135.666 227.86C135.777 227.714 135.942 227.617 136.126 227.591C136.311 227.564 136.498 227.609 136.648 227.717C136.798 227.824 136.898 227.985 136.925 228.164C138.051 235.625 139.579 243.842 140.176 244.678C140.351 244.847 140.583 244.947 140.829 244.962C143.289 245.019 145.709 244.356 147.775 243.059C148.942 242.209 147.775 239.012 147.081 237.662C147.036 237.567 147.012 237.464 147.012 237.359C147.012 237.254 147.036 237.15 147.081 237.055C147.127 236.962 147.196 236.881 147.28 236.818C147.364 236.755 147.462 236.711 147.567 236.691C148.453 236.54 149.311 236.258 150.109 235.854C149.084 234.901 147.973 234.038 146.789 233.277C146.261 232.9 145.789 232.589 145.497 232.36C144.108 231.321 143.885 227.638 143.844 226.963C143.836 226.785 143.9 226.611 144.021 226.478C144.143 226.344 144.314 226.262 144.497 226.248C144.588 226.241 144.681 226.251 144.768 226.28C144.855 226.308 144.935 226.353 145.004 226.412C145.073 226.472 145.129 226.544 145.168 226.625C145.207 226.705 145.229 226.793 145.233 226.882C145.33 228.69 145.802 230.93 146.372 231.362C146.636 231.577 147.081 231.874 147.595 232.225C150.595 234.303 151.873 235.301 151.512 236.273C151.234 237.055 149.859 237.622 148.734 237.865C149.428 239.443 150.609 242.843 148.65 244.26C146.487 245.575 144.005 246.31 141.454 246.392Z" fill="#15371B"/>
<path d="M133.675 169.892L146.456 228.42L135.55 232.468C135.55 232.468 118.685 180.173 117.129 176.22" fill="#194349"/>
<path d="M135.549 233.196C135.453 233.215 135.354 233.215 135.258 233.196C135.171 233.158 135.094 233.102 135.032 233.032C134.97 232.962 134.923 232.88 134.896 232.792C134.73 232.266 118.017 180.47 116.489 176.57C116.445 176.486 116.419 176.393 116.414 176.298C116.409 176.203 116.425 176.109 116.46 176.02C116.495 175.931 116.549 175.851 116.619 175.784C116.688 175.717 116.772 175.665 116.863 175.632C116.955 175.599 117.052 175.584 117.15 175.59C117.248 175.596 117.343 175.622 117.429 175.666C117.516 175.71 117.592 175.771 117.653 175.845C117.713 175.92 117.757 176.006 117.781 176.098C119.24 179.835 133.924 225.263 135.994 231.699L145.718 228.096L133.049 170.081C133.028 169.994 133.026 169.904 133.041 169.816C133.057 169.728 133.09 169.644 133.139 169.569C133.188 169.494 133.252 169.429 133.327 169.378C133.402 169.326 133.487 169.29 133.577 169.271C133.758 169.242 133.944 169.28 134.099 169.377C134.253 169.474 134.364 169.624 134.41 169.797L147.191 228.312C147.225 228.469 147.201 228.633 147.122 228.774C147.043 228.915 146.915 229.024 146.76 229.081L135.855 233.129C135.764 233.185 135.656 233.208 135.549 233.196Z" fill="#15371B"/>
<path d="M143.552 170.472C143.552 170.472 150.567 192.059 151.734 207.481L143.552 170.472Z" fill="#68E1FD"/>
<path d="M151.734 208.155C151.559 208.156 151.391 208.092 151.262 207.977C151.133 207.862 151.054 207.704 151.04 207.535C149.887 192.316 142.954 170.89 142.885 170.674C142.847 170.51 142.874 170.337 142.961 170.191C143.048 170.044 143.188 169.935 143.354 169.884C143.52 169.834 143.699 169.845 143.856 169.916C144.014 169.987 144.138 170.114 144.205 170.27C144.274 170.485 151.262 192.073 152.429 207.427C152.437 207.515 152.426 207.605 152.398 207.689C152.37 207.774 152.325 207.852 152.266 207.92C152.206 207.988 152.134 208.043 152.052 208.084C151.97 208.124 151.881 208.148 151.79 208.155H151.734Z" fill="#15371B"/>
<path d="M390.14 295.368C390.14 295.368 395.113 271.487 382.596 255.027C382.596 255.027 375.817 257.55 377.651 272.499C378.905 281.854 382.014 290.885 386.806 299.092L390.14 295.368Z" fill="#629F89"/>
<path d="M386.805 299.726C386.692 299.714 386.584 299.678 386.487 299.619C386.391 299.561 386.31 299.482 386.249 299.389C381.418 291.088 378.273 281.965 376.983 272.512C375.122 257.199 382.096 254.42 382.401 254.312C382.547 254.259 382.707 254.253 382.856 254.295C383.006 254.336 383.139 254.422 383.235 254.541C395.738 271.069 390.945 295.193 390.903 295.435C390.876 295.555 390.819 295.666 390.737 295.759L387.403 299.483C387.329 299.565 387.236 299.63 387.133 299.672C387.029 299.714 386.917 299.732 386.805 299.726ZM382.387 255.877C380.998 256.794 376.914 260.558 378.359 272.351C379.586 281.284 382.491 289.922 386.93 297.837L389.472 294.99C389.875 292.804 393.557 271.082 382.387 255.877Z" fill="#15371B"/>
<path d="M385.124 291.941C385.124 291.941 379.317 253.138 358.396 239.322C359.099 248.869 361.204 258.269 364.647 267.237C370.134 280.662 380.165 293.142 380.165 293.142L385.124 291.941Z" fill="#629F89"/>
<path d="M380.165 293.789C380.055 293.79 379.946 293.766 379.847 293.72C379.748 293.673 379.662 293.604 379.595 293.519C379.498 293.398 369.44 280.81 363.98 267.439C360.531 258.396 358.408 248.926 357.673 239.308C357.669 239.177 357.701 239.048 357.767 238.934C357.834 238.819 357.931 238.725 358.048 238.661C358.16 238.591 358.29 238.554 358.423 238.554C358.556 238.554 358.687 238.591 358.799 238.661C369.773 245.933 376.539 260.019 380.276 270.556C382.735 277.481 384.594 284.594 385.833 291.819C385.855 291.99 385.812 292.162 385.712 292.304C385.613 292.446 385.463 292.547 385.291 292.588L380.332 293.749L380.165 293.789ZM359.229 240.698C360.032 249.667 362.079 258.49 365.314 266.927C369.28 275.953 374.365 284.475 380.457 292.305L384.305 291.415C383.527 286.477 377.247 253.893 359.229 240.698Z" fill="#15371B"/>
<path d="M394.182 295.368C394.182 295.368 408.852 258.143 402.99 231.955C402.99 231.955 395.293 238.796 390.139 253.988C384.985 269.18 387.361 295.395 387.361 295.395L394.182 295.368Z" fill="#629F89"/>
<path d="M394.182 295.988H387.347C387.166 295.992 386.99 295.929 386.855 295.811C386.721 295.693 386.638 295.53 386.624 295.354C386.624 295.098 384.332 268.829 389.403 253.677C394.473 238.526 402.128 231.631 402.447 231.348C402.538 231.264 402.651 231.205 402.773 231.179C402.896 231.153 403.023 231.16 403.142 231.2C403.264 231.234 403.373 231.3 403.459 231.39C403.544 231.481 403.603 231.592 403.628 231.712C409.477 257.819 394.946 295.125 394.793 295.543C394.747 295.667 394.665 295.776 394.556 295.855C394.447 295.934 394.317 295.98 394.182 295.988ZM388 294.639H393.681C395.279 290.416 407.268 257.415 402.559 233.331C400.378 235.652 394.807 242.398 390.82 254.15C386.221 267.696 387.694 290.511 388 294.599V294.639Z" fill="#15371B"/>
<path d="M402.601 291.118C403.184 291.118 418.244 268.181 418.632 248.2C411.844 252.82 406.337 258.998 402.601 266.185C396.724 277.828 395.752 293.088 395.752 293.088L402.601 291.118Z" fill="#629F89"/>
<path d="M395.752 293.789C395.653 293.789 395.556 293.77 395.465 293.732C395.375 293.695 395.293 293.639 395.226 293.57C395.158 293.5 395.106 293.418 395.072 293.328C395.038 293.238 395.024 293.143 395.03 293.047C395.03 292.899 396.085 277.504 401.976 265.874C405.757 258.566 411.352 252.288 418.257 247.606C418.368 247.541 418.496 247.506 418.626 247.506C418.755 247.506 418.883 247.541 418.994 247.606C419.108 247.667 419.203 247.757 419.269 247.866C419.335 247.975 419.37 248.1 419.369 248.227C418.994 266.832 405.31 290.416 402.809 291.766L395.96 293.735L395.752 293.789ZM417.868 249.576C411.73 254.056 406.727 259.838 403.24 266.481C398.35 276.182 396.877 288.568 396.544 292.116L402.254 290.47C403.587 288.946 416.868 268.208 417.868 249.576Z" fill="#15371B"/>
<path d="M400.128 315.228H380.165L372.427 287.381H407.852L400.128 315.228Z" fill="#194349"/>
<path d="M400.198 315.903H380.165C380.012 315.904 379.864 315.856 379.743 315.765C379.622 315.675 379.536 315.547 379.498 315.404L371.76 287.556C371.732 287.457 371.729 287.352 371.75 287.251C371.772 287.15 371.818 287.056 371.885 286.976C371.949 286.894 372.03 286.827 372.124 286.78C372.218 286.733 372.322 286.708 372.427 286.706H407.852C407.959 286.707 408.064 286.732 408.159 286.778C408.255 286.824 408.338 286.89 408.404 286.972C408.469 287.053 408.515 287.148 408.537 287.249C408.56 287.351 408.558 287.455 408.533 287.556L400.795 315.404C400.759 315.536 400.683 315.654 400.576 315.743C400.47 315.833 400.338 315.888 400.198 315.903ZM380.749 314.554H399.656L407.019 288.055H373.33L380.749 314.554Z" fill="#15371B"/>
</svg>
