<svg width="135" height="30" viewBox="0 0 135 30" fill="none" xmlns="http://www.w3.org/2000/svg">
<path d="M13.9067 4.36644V0H0V30H13.9067V25.6336C11.0579 25.6336 8.32575 24.5132 6.3114 22.519C4.297 20.5248 3.16533 17.8202 3.16533 15C3.16533 12.1798 4.297 9.47508 6.3114 7.48094C8.32575 5.48676 11.0579 4.36644 13.9067 4.36644Z" fill="#3ECD9B"/>
<path d="M13.9062 4.36646V25.6336C16.755 25.6336 19.4872 24.5132 21.5016 22.519C23.516 20.5249 24.6476 17.8202 24.6476 15C24.6476 12.1798 23.516 9.47509 21.5016 7.48096C19.4872 5.48678 16.755 4.36646 13.9062 4.36646Z" fill="#3ECD9B"/>
<path d="M32.4519 7.0376H35.5653V21.8835H32.4519V7.0376Z" fill="#3ECD9B"/>
<path d="M37.3097 16.798C37.3097 15.7299 37.6301 14.6859 38.2301 13.7982C38.8302 12.9106 39.683 12.2192 40.6804 11.8119C41.6778 11.4046 42.7749 11.2996 43.8327 11.5102C44.8904 11.7208 45.8612 12.2376 46.6219 12.995C47.3826 13.7525 47.8991 14.7164 48.1059 15.7648C48.3125 16.8131 48.2002 17.8986 47.783 18.8836C47.3658 19.8686 46.6627 20.7089 45.7626 21.2978C44.8625 21.8868 43.806 22.1979 42.7271 22.1918C42.0115 22.1974 41.302 22.0615 40.6401 21.7919C39.9783 21.5224 39.3774 21.1248 38.8728 20.6225C38.3683 20.1201 37.9702 19.523 37.7017 18.8663C37.4333 18.2096 37.3 17.5064 37.3097 16.798ZM45.114 16.798C45.1018 16.3375 44.9527 15.8908 44.6853 15.5139C44.418 15.1368 44.0444 14.8462 43.611 14.6783C43.1777 14.5104 42.704 14.4727 42.2493 14.57C41.7944 14.6672 41.3786 14.895 41.0539 15.225C40.7292 15.5549 40.5099 15.9722 40.4235 16.4249C40.3372 16.8775 40.3875 17.3453 40.5683 17.7697C40.7491 18.1941 41.0523 18.5565 41.44 18.8112C41.8276 19.066 42.2825 19.2019 42.7478 19.2021C43.0647 19.2083 43.3793 19.1496 43.6722 19.0298C43.9651 18.9101 44.2298 18.7319 44.4499 18.5063C44.6701 18.2807 44.8408 18.0124 44.9515 17.7186C45.0623 17.4246 45.1105 17.1113 45.0933 16.798H45.114Z" fill="#3ECD9B"/>
<path d="M60.4629 11.7122V21.3801C60.4629 24.791 57.7646 26.2396 55.0351 26.2396C54.0723 26.3178 53.1067 26.1285 52.2468 25.6929C51.3869 25.2572 50.6669 24.5926 50.1678 23.7739L52.7934 22.2739C53.0062 22.6986 53.3446 23.049 53.7637 23.2784C54.1828 23.5078 54.6624 23.6054 55.1389 23.5581C55.4425 23.5951 55.7505 23.5653 56.041 23.4708C56.3316 23.3762 56.5973 23.2193 56.8194 23.0111C57.0416 22.803 57.2145 22.5489 57.3259 22.2669C57.4372 21.985 57.4842 21.6821 57.4636 21.3801V20.4451C57.1013 20.88 56.6415 21.2252 56.121 21.4535C55.6003 21.6818 55.0331 21.7868 54.4643 21.7602C53.0881 21.7602 51.7683 21.219 50.7951 20.2556C49.822 19.2923 49.2753 17.9856 49.2753 16.6232C49.2753 15.2608 49.822 13.9542 50.7951 12.9908C51.7683 12.0275 53.0881 11.4862 54.4643 11.4862C55.0331 11.4596 55.6003 11.5646 56.121 11.7929C56.6415 12.0212 57.1013 12.3664 57.4636 12.8013V11.7739L60.4629 11.7122ZM57.4636 16.5924C57.4842 16.1009 57.356 15.6144 57.0952 15.1956C56.8344 14.7769 56.4531 14.4449 56.0001 14.2424C55.5472 14.0399 55.0435 13.9762 54.5537 14.0594C54.0639 14.1427 53.6104 14.369 53.2516 14.7094C52.8929 15.0497 52.6451 15.4887 52.5403 15.9696C52.4355 16.4505 52.4784 16.9514 52.6634 17.4079C52.8485 17.8645 53.1674 18.2558 53.5789 18.5316C53.9905 18.8073 54.4759 18.955 54.9728 18.9554C55.2972 18.9785 55.6227 18.934 55.9285 18.8249C56.2343 18.7157 56.5137 18.5442 56.7483 18.3215C56.9831 18.0989 57.168 17.8299 57.2912 17.532C57.4144 17.2342 57.4731 16.9141 57.4636 16.5924Z" fill="#3ECD9B"/>
<path d="M62.2169 16.7979C62.2169 15.7306 62.5368 14.6874 63.1359 13.8002C63.7351 12.9129 64.5866 12.2216 65.5828 11.8137C66.579 11.4057 67.675 11.2995 68.7322 11.5085C69.7894 11.7174 70.7602 12.2322 71.5219 12.9875C72.2834 13.7429 72.8015 14.705 73.0105 15.7519C73.2196 16.7989 73.1102 17.8838 72.6963 18.8691C72.2823 19.8546 71.5823 20.6963 70.685 21.2877C69.7876 21.8792 68.7332 22.1938 67.6551 22.1917C66.9382 22.1986 66.227 22.0637 65.5634 21.795C64.8998 21.5262 64.297 21.129 63.7906 20.6266C63.284 20.1242 62.8839 19.5268 62.6137 18.8693C62.3436 18.2119 62.2086 17.5076 62.2169 16.7979ZM70.0213 16.7979C70.009 16.337 69.8596 15.8899 69.5918 15.5126C69.3241 15.1355 68.9498 14.8448 68.5158 14.6773C68.0819 14.5097 67.6078 14.4726 67.1527 14.5707C66.6976 14.6687 66.2819 14.8976 65.9575 15.2286C65.6332 15.5595 65.4148 15.9778 65.3297 16.4311C65.2444 16.8844 65.2962 17.3525 65.4786 17.7767C65.6609 18.201 65.9657 18.5626 66.3548 18.8161C66.7438 19.0696 67.1997 19.2039 67.6655 19.202C67.9823 19.2082 68.297 19.1495 68.5898 19.0297C68.8827 18.91 69.1475 18.7318 69.3676 18.5062C69.5877 18.2805 69.7584 18.0123 69.8691 17.7185C69.9799 17.4245 70.0281 17.1112 70.0109 16.7979H70.0213Z" fill="#3ECD9B"/>
<path d="M74.5371 8.98966C74.5371 8.62801 74.6455 8.27438 74.8484 7.97366C75.0514 7.6729 75.34 7.43851 75.6775 7.30009C76.0151 7.16168 76.3865 7.12547 76.7448 7.19603C77.1031 7.26659 77.4323 7.44076 77.6907 7.69652C77.949 7.95229 78.1249 8.27819 78.1962 8.63284C78.2675 8.9876 78.2309 9.35531 78.0911 9.68952C77.9513 10.0236 77.7145 10.3092 77.4107 10.5102C77.1069 10.7112 76.7498 10.8184 76.3844 10.8184C75.8961 10.8131 75.4294 10.6187 75.0841 10.2769C74.7389 9.93507 74.5425 9.47305 74.5371 8.98966ZM74.8381 11.7123H77.9515V21.8835H74.8381V11.7123Z" fill="#3ECD9B"/>
<path d="M91.2754 16.7979C91.3103 17.4744 91.2097 18.151 90.9795 18.7888C90.7493 19.4266 90.3938 20.013 89.9338 20.5143C89.4736 21.0157 88.9179 21.4219 88.2986 21.7098C87.6793 21.9977 87.0086 22.1614 86.3251 22.1917C85.745 22.23 85.1638 22.138 84.6247 21.9228C84.0856 21.7074 83.6026 21.3745 83.2116 20.9486V25.9726H80.0982V11.7123H83.2116V12.6678C83.6031 12.2432 84.0865 11.9117 84.6257 11.6982C85.1648 11.4846 85.7458 11.3946 86.3251 11.4349C87.0059 11.4652 87.6739 11.6281 88.2911 11.914C88.9083 12.1999 89.4626 12.6035 89.9222 13.1014C90.382 13.5994 90.7381 14.1822 90.9702 14.8165C91.2024 15.4507 91.3062 16.1239 91.2754 16.7979ZM88.162 16.7979C88.1498 16.3207 87.9954 15.8577 87.7186 15.467C87.4417 15.0763 87.0543 14.7751 86.6053 14.6013C86.1562 14.4275 85.6653 14.3889 85.1941 14.4901C84.7229 14.5913 84.2924 14.828 83.9565 15.1704C83.6205 15.5128 83.3942 15.9458 83.3059 16.4151C83.2175 16.8843 83.2709 17.3689 83.4596 17.8083C83.6483 18.2475 83.9636 18.6218 84.3663 18.8845C84.769 19.1471 85.241 19.2861 85.7231 19.2842C86.0534 19.2981 86.3829 19.2427 86.69 19.1217C86.9972 19.0007 87.275 18.8167 87.5053 18.582C87.7356 18.3472 87.913 18.0668 88.0263 17.7595C88.1395 17.452 88.1857 17.1243 88.162 16.7979Z" fill="#3ECD9B"/>
<path d="M100.751 18.8321C100.751 21.1746 98.6751 22.1712 96.475 22.1712C95.5776 22.2511 94.6767 22.0628 93.8885 21.6306C93.1004 21.1983 92.4613 20.542 92.0539 19.7465L94.7315 18.2465C94.8375 18.6131 95.0675 18.9325 95.383 19.1514C95.6985 19.3702 96.0803 19.4751 96.4646 19.4486C97.2014 19.4486 97.5751 19.2226 97.5751 18.8116C97.5751 17.6917 92.5209 18.2876 92.5209 14.7637C92.5209 12.5445 94.4097 11.4349 96.5476 11.4349C97.3602 11.3988 98.1677 11.5814 98.8838 11.9631C99.6001 12.3448 100.199 12.9114 100.616 13.6027L97.9383 15C97.82 14.7349 97.6267 14.5095 97.3818 14.3509C97.1368 14.1922 96.8507 14.1073 96.558 14.1061C96.0183 14.1061 95.6966 14.3116 95.6966 14.6712C95.6966 15.8424 100.751 15.0719 100.751 18.8321Z" fill="#3ECD9B"/>
<path d="M112.031 11.7124V21.8836H108.917V20.9282C108.563 21.3511 108.114 21.6858 107.606 21.9053C107.098 22.1249 106.545 22.223 105.991 22.1919C103.915 22.1919 102.14 20.7227 102.14 17.9795V11.7124H105.254V17.5172C105.229 17.7599 105.258 18.0049 105.339 18.2354C105.42 18.4659 105.55 18.6763 105.72 18.8522C105.891 19.028 106.099 19.165 106.328 19.2539C106.557 19.3427 106.803 19.3811 107.049 19.3665C108.17 19.3665 108.959 18.709 108.959 17.3117V11.7124H112.031Z" fill="#3ECD9B"/>
<path d="M129.675 15.6371V21.8836H126.562V15.9042C126.562 14.8768 126.074 14.2398 125.088 14.2398C124.102 14.2398 123.48 14.9487 123.48 16.1508V21.8836H120.366V15.9042C120.366 14.8768 119.878 14.2398 118.892 14.2398C117.906 14.2398 117.284 14.9487 117.284 16.1508V21.8836H114.17V11.7124H117.284V12.6473C117.607 12.2343 118.027 11.9072 118.509 11.6956C118.991 11.4839 119.519 11.3943 120.044 11.435C120.571 11.4078 121.096 11.5167 121.567 11.7508C122.038 11.985 122.44 12.3365 122.732 12.7706C123.075 12.3169 123.527 11.9565 124.048 11.723C124.568 11.4894 125.141 11.3903 125.711 11.435C128.139 11.435 129.675 13.0994 129.675 15.6371Z" fill="#3ECD9B"/>
<path d="M132.291 11.6507C133.552 11.6507 134.574 10.6387 134.574 9.3904C134.574 8.14211 133.552 7.13013 132.291 7.13013C131.03 7.13013 130.008 8.14211 130.008 9.3904C130.008 10.6387 131.03 11.6507 132.291 11.6507Z" fill="#3ECD9B"/>
</svg>
