<svg width="280" height="50" viewBox="0 0 280 50" fill="none" xmlns="http://www.w3.org/2000/svg">
  <g transform="translate(0, 10) scale(1.2)">
    <path d="M13.9067 4.36644V0H0V30H13.9067V25.6336C11.0579 25.6336 8.32575 24.5132 6.3114 22.519C4.297 20.5248 3.16533 17.8202 3.16533 15C3.16533 12.1798 4.297 9.47508 6.3114 7.48094C8.32575 5.48676 11.0579 4.36644 13.9067 4.36644Z" fill="#3ECD9B"/>
    <path d="M13.9062 4.36646V25.6336C16.755 25.6336 19.4872 24.5132 21.5016 22.519C23.516 20.5249 24.6476 17.8202 24.6476 15C24.6476 12.1798 23.516 9.47509 21.5016 7.48096C19.4872 5.48678 16.755 4.36646 13.9062 4.36646Z" fill="#3ECD9B"/>
  </g>

  <text x="40" y="32" fill="#3ECD9B" style="font-family: 'Segoe UI', Roboto, Helvetica, Arial, sans-serif; font-size: 22px; font-weight: bold;">
    Logic<tspan font-weight="400">Code AI</tspan>
  </text>
</svg>